<svg width="375" height="538" viewBox="0 0 375 538" fill="none" xmlns="http://www.w3.org/2000/svg">
<path d="M354.416 223.006C366.364 216.037 374.328 203.094 374.328 189.156C374.328 167.255 356.407 149.334 334.505 149.334C312.604 149.334 294.683 167.255 294.683 189.156C294.683 204.088 302.646 216.036 314.595 223.006V362.392L185.173 430.09V479.866V480.861V481.855V494.798C178.204 492.808 170.241 488.824 165.261 483.845C159.287 477.871 157.298 470.902 157.298 460.949L158.292 443.028L141.371 440.043C141.371 440.043 98.5644 432.08 79.6471 402.21C72.6783 391.257 69.694 378.314 70.6887 364.377C81.6417 368.361 93.5847 370.351 105.533 370.351C116.486 370.351 125.445 361.392 125.445 350.439C125.445 339.486 116.486 330.527 105.533 330.527C92.59 330.527 80.642 326.542 70.6887 320.573C68.6991 317.589 65.7094 315.594 61.7302 314.599C48.7876 303.646 40.8236 287.719 40.8236 269.797C40.8236 235.947 69.6929 209.067 105.537 209.067C116.49 209.067 125.449 200.109 125.449 189.155C125.449 178.202 116.491 169.243 105.537 169.243C93.5891 169.243 81.6409 171.233 70.6929 175.217C69.6981 160.285 72.6825 147.343 79.6513 135.395C98.5687 105.531 140.381 97.5615 141.375 97.5615L158.297 94.5771L157.302 76.6557C157.302 66.7027 159.291 58.7344 164.271 53.7597C169.25 47.7857 177.213 44.8013 184.183 42.8067V55.7493C184.183 66.7024 193.141 75.6613 204.095 75.6613C215.048 75.6613 224.007 66.7029 224.007 55.7493V0H204.095C200.11 0 160.292 0.994792 135.401 26.88C126.443 36.8331 120.469 48.7813 117.48 62.7187C97.568 68.6927 64.7147 83.6253 44.8027 114.489C29.8707 138.385 25.8853 166.26 31.86 197.12C11.948 215.041 0 240.923 0 269.797C0 297.672 11.9479 323.557 31.86 341.48C25.886 372.344 29.8704 400.22 44.8027 423.116C64.7147 453.98 97.568 468.913 117.48 474.887C119.47 488.824 125.444 500.772 135.401 510.725C160.292 536.611 200.115 537.605 204.095 537.605H224.007V481.856V480.861V479.866L224.001 453.981L353.423 386.284V223.017L354.416 223.006ZM334.509 208.074C323.556 208.074 315.592 199.115 315.592 189.156C315.592 178.203 324.55 170.239 334.509 170.239C344.462 170.239 353.427 179.197 353.427 189.156C353.421 200.109 345.458 208.074 334.509 208.074Z" fill="#333333"/>
</svg>
