<svg width="374" height="538" viewBox="0 0 374 538" fill="none" xmlns="http://www.w3.org/2000/svg">
<path d="M373.34 269.797C373.34 241.923 361.392 216.037 341.48 197.12C347.454 165.26 343.47 137.385 328.537 114.489C308.625 83.6253 275.772 68.692 255.86 62.7187C253.87 48.7813 247.896 36.8333 237.939 26.88C213.048 0.994661 173.225 0 169.245 0H149.333V78.6453L19.912 146.343V309.609C7.96412 316.578 0 329.521 0 343.459C0 365.36 17.9213 383.281 39.8227 383.281C61.724 383.281 79.6453 365.36 79.6453 343.459C79.6453 328.527 71.6817 315.584 59.7333 309.609V170.223L189.155 102.525V42.796C196.123 44.7856 204.087 48.77 209.067 53.7491C214.046 59.7231 217.03 66.6917 216.035 76.6451L215.041 94.5664L231.962 97.5508C231.962 97.5508 274.769 105.514 293.686 135.384C300.655 146.337 303.639 159.28 302.644 175.207C291.691 171.222 279.748 169.233 267.8 169.233C256.847 169.233 247.888 178.191 247.888 189.145C247.888 200.098 256.847 209.057 267.8 209.057C303.639 209.057 332.514 235.937 332.514 269.786C332.514 287.707 324.55 303.635 311.607 314.589C307.623 315.584 305.633 317.573 302.649 320.563C292.696 326.537 280.747 330.516 267.805 330.516C256.852 330.516 247.893 339.474 247.893 350.428C247.893 361.381 256.851 370.34 267.805 370.34C279.753 370.34 291.701 368.35 302.649 364.366C303.643 379.298 300.659 391.246 293.69 402.199C274.773 432.063 232.961 440.033 231.966 440.033L215.045 443.017L216.04 460.938C216.04 470.891 214.05 478.86 209.071 483.834C204.092 489.808 196.128 492.793 189.159 494.787V481.845C189.159 470.892 180.201 461.933 169.247 461.933C158.293 461.933 149.335 470.891 149.335 481.845V537.594H169.247C173.231 537.594 213.05 536.599 237.94 510.714C246.899 500.761 252.872 488.813 255.862 474.875C275.774 468.901 308.627 453.969 328.539 423.105C343.471 400.209 347.456 372.334 341.482 341.469C361.388 323.547 373.336 297.662 373.336 269.786L373.34 269.797ZM39.82 362.385C28.8669 362.385 20.9027 353.427 20.9027 343.468C20.9027 332.515 29.8611 324.551 39.82 324.551C49.7731 324.551 58.7373 333.509 58.7373 343.468C58.7373 354.421 49.7789 362.385 39.82 362.385Z" fill="#333333"/>
</svg>
