<svg width="467" height="234" viewBox="0 0 467 234" fill="none" xmlns="http://www.w3.org/2000/svg">
<path d="M455 0H175C169.531 0 164.802 3.79692 163.615 9.13546L119 210.002H11.6667C5.224 210.002 0 215.226 0 221.669C0 228.111 5.224 233.335 11.6667 233.335H408.333C413.802 233.335 418.531 229.539 419.719 224.2L466.385 14.2C467.156 10.7469 466.313 7.13227 464.099 4.37187C461.886 1.61147 458.537 0.00211589 455 0.00211589V0ZM399 210H142.88L184.333 23.3333H440.454L399 210Z" fill="#6BB2CB"/>
<path d="M303.333 116.667C303.333 123.109 298.109 128.333 291.667 128.333C285.224 128.333 280 123.109 280 116.667C280 110.224 285.224 105 291.667 105C298.109 105 303.333 110.224 303.333 116.667Z" fill="#6BB2CB"/>
</svg>
