<svg width="444" height="572" viewBox="0 0 444 572" fill="none" xmlns="http://www.w3.org/2000/svg">
<path d="M280 198.333C305.01 198.333 328.12 184.989 340.62 163.333C353.125 141.677 353.125 114.989 340.62 93.3332C328.12 71.6772 305.01 58.3332 280 58.3332H163.333C138.322 58.3332 115.213 71.6772 102.713 93.3332C90.2077 114.989 90.2077 141.677 102.713 163.333C115.213 184.989 138.322 198.333 163.333 198.333H280ZM116.666 128.333C116.666 115.958 121.583 104.088 130.333 95.3332C139.088 86.5832 150.958 81.6665 163.333 81.6665H280C296.672 81.6665 312.078 90.5624 320.416 105C328.749 119.437 328.749 137.229 320.416 151.667C312.077 166.104 296.67 175 280 175H163.333C150.958 175 139.088 170.083 130.333 161.333C121.583 152.578 116.666 140.708 116.666 128.333Z" fill="#6BB2CB"/>
<path d="M186.666 128.333C186.666 134.776 181.442 140 174.999 140C168.557 140 163.333 134.776 163.333 128.333C163.333 121.891 168.557 116.667 174.999 116.667C181.442 116.667 186.666 121.891 186.666 128.333Z" fill="#6BB2CB"/>
<path d="M279.999 128.333C279.999 134.776 274.775 140 268.333 140C261.89 140 256.666 134.776 256.666 128.333C256.666 121.891 261.89 116.667 268.333 116.667C274.775 116.667 279.999 121.891 279.999 128.333Z" fill="#6BB2CB"/>
<path d="M139.999 350C133.557 350 128.333 355.224 128.333 361.667V455C128.333 458.094 129.562 461.062 131.749 463.25C133.937 465.437 136.905 466.667 139.999 466.667H303.333C306.426 466.667 309.395 465.437 311.583 463.25C313.77 461.062 314.999 458.094 314.999 455V361.667C314.999 358.573 313.77 355.604 311.583 353.417C309.395 351.229 306.426 350 303.333 350H139.999ZM291.666 443.333H151.666V373.333H291.666V443.333Z" fill="#6BB2CB"/>
<path d="M198.332 408.333C198.332 414.776 193.108 420 186.666 420C180.223 420 174.999 414.776 174.999 408.333C174.999 401.891 180.223 396.667 186.666 396.667C193.108 396.667 198.332 401.891 198.332 408.333Z" fill="#6BB2CB"/>
<path d="M233.333 420H256.666C263.109 420 268.333 414.776 268.333 408.333C268.333 401.891 263.109 396.667 256.666 396.667H233.333C226.89 396.667 221.666 401.891 221.666 408.333C221.666 414.776 226.89 420 233.333 420Z" fill="#6BB2CB"/>
<path d="M303.333 560C303.333 556.906 302.103 553.937 299.916 551.75C297.728 549.562 294.76 548.333 291.666 548.333H93.3325C80.9576 548.333 69.0872 543.417 60.3325 534.667C51.5825 525.911 46.6659 514.041 46.6659 501.667V385C46.6919 363.349 55.3013 342.588 70.6139 327.281C85.9205 311.969 106.682 303.36 128.333 303.333H314.999C334.874 303.354 354.062 310.62 368.963 323.771C383.865 336.927 393.458 355.063 395.942 374.781C396.744 381.177 402.572 385.713 408.968 384.911C415.364 384.115 419.9 378.281 419.103 371.885C414.421 335.047 390.63 303.416 356.53 288.703C388.577 269.869 408.275 235.5 408.333 198.333C417.614 198.333 426.521 194.646 433.082 188.083C439.643 181.521 443.332 172.614 443.332 163.334V140.001C443.332 130.72 439.645 121.813 433.082 115.251C426.519 108.69 417.613 105.001 408.333 105.001C408.301 77.1628 397.229 50.4748 377.546 30.7881C357.858 11.1055 331.171 0.0334648 303.333 0.00146484H139.999C112.161 0.0327155 85.4727 11.1056 65.786 30.7881C46.1033 50.4761 35.0313 77.1628 34.9993 105.001C25.7181 105.001 16.8113 108.689 10.25 115.251C3.68867 121.814 0 130.721 0 140.001V163.334C0 172.615 3.68747 181.522 10.25 188.083C16.8125 194.645 25.7193 198.333 34.9993 198.333C35.0566 235.464 54.7127 269.803 86.7073 288.645C67.9007 296.781 51.8847 310.239 40.6287 327.359C29.3683 344.473 23.358 364.509 23.3313 384.999V501.665C23.3522 520.223 30.7324 538.02 43.8527 551.144C56.9777 564.264 74.774 571.644 93.3313 571.666H291.665C294.758 571.666 297.727 570.436 299.915 568.249C302.102 566.061 303.331 563.093 303.331 559.999L303.333 560ZM58.3325 198.333V186.667C58.3325 183.573 57.1034 180.604 54.9159 178.417C52.7284 176.229 49.7596 175 46.6659 175H34.9992C28.5565 175 23.3325 169.776 23.3325 163.333V140C23.3325 133.557 28.5565 128.333 34.9992 128.333H46.6659C49.7596 128.333 52.7284 127.104 54.9159 124.917C57.1033 122.729 58.3325 119.76 58.3325 116.667V105C58.3586 83.3492 66.968 62.5879 82.2805 47.2812C97.5872 31.9692 118.349 23.3599 139.999 23.3332H303.333C324.983 23.3592 345.745 31.9687 361.051 47.2812C376.363 62.5879 384.973 83.3492 384.999 105V116.667C384.999 119.76 386.228 122.729 388.416 124.917C390.603 127.104 393.572 128.333 396.666 128.333H408.333C411.426 128.333 414.395 129.562 416.583 131.75C418.77 133.937 419.999 136.906 419.999 140V163.333C419.999 166.427 418.77 169.396 416.583 171.583C414.395 173.771 411.426 175 408.333 175H396.666C390.223 175 384.999 180.224 384.999 186.667V198.333C384.973 219.984 376.364 240.745 361.051 256.052C345.745 271.364 324.983 279.973 303.333 280H139.999C118.349 279.974 97.5872 271.364 82.2805 256.052C66.9685 240.745 58.3592 219.984 58.3325 198.333Z" fill="#6BB2CB"/>
</svg>
