<svg width="234" height="234" viewBox="0 0 234 234" fill="none" xmlns="http://www.w3.org/2000/svg">
<path d="M116.666 233.333C132.931 233.344 149.01 229.917 163.859 223.276L202.687 232.984C206.396 233.906 210.328 232.953 213.203 230.427C216.078 227.901 217.531 224.125 217.094 220.323L212.719 182.697C226.177 163.312 233.369 140.265 233.333 116.667C233.333 85.724 221.042 56.052 199.161 34.172C177.281 12.292 147.609 0 116.667 0C85.724 0 56.052 12.2917 34.172 34.172C12.292 56.0523 0 85.724 0 116.667C0 147.609 12.2917 177.281 34.172 199.161C56.0523 221.041 85.7234 233.333 116.666 233.333ZM116.666 23.3332C139.895 23.2863 162.306 31.9217 179.505 47.5359C196.702 63.1559 207.447 84.6292 209.635 107.76C211.823 130.885 205.297 153.995 191.333 172.563C189.536 174.948 188.729 177.937 189.067 180.901L192.02 206.256L165.547 199.631H165.552C162.88 198.954 160.062 199.25 157.594 200.469C144.864 206.75 130.859 210.011 116.667 210C83.323 210 52.5109 192.208 35.839 163.334C19.167 134.459 19.167 98.8751 35.839 70.0004C52.5109 41.1257 83.322 23.3332 116.666 23.3332Z" fill="#6BB2CB"/>
<path d="M69.9997 105H116.666C123.109 105 128.333 99.7758 128.333 93.3332C128.333 86.8905 123.109 81.6665 116.666 81.6665H69.9997C63.557 81.6665 58.333 86.8905 58.333 93.3332C58.333 99.7758 63.557 105 69.9997 105Z" fill="#6BB2CB"/>
<path d="M69.9997 151.667H163.333C169.776 151.667 175 146.443 175 140C175 133.557 169.776 128.333 163.333 128.333H69.9997C63.557 128.333 58.333 133.557 58.333 140C58.333 146.443 63.557 151.667 69.9997 151.667Z" fill="#6BB2CB"/>
</svg>
