<svg width="234" height="234" viewBox="0 0 234 234" fill="none" xmlns="http://www.w3.org/2000/svg">
<path d="M116.667 0C85.7348 0.0364587 56.0788 12.3385 34.2081 34.208C12.3375 56.0775 0.0361379 85.7347 0.000137918 116.667C-0.0363207 140.265 7.1564 163.312 20.6148 182.697L16.2399 220.323C15.8024 224.125 17.2555 227.901 20.1305 230.427C23.0055 232.953 26.9379 233.906 30.6461 232.984L69.4741 223.276C84.3235 229.917 100.401 233.344 116.667 233.333C158.35 233.333 196.865 211.099 217.704 175C238.542 138.901 238.542 94.4319 217.704 58.3332C196.865 22.2345 158.348 0 116.667 0ZM116.667 210C102.505 209.995 88.5308 206.735 75.8335 200.469C74.2397 199.693 72.4845 199.292 70.7137 199.302C69.7554 199.302 68.8023 199.422 67.8752 199.651L41.4019 206.276L44.355 180.922V180.927C44.6987 177.958 43.8862 174.974 42.0945 172.583C25.1985 149.984 19.4439 120.952 26.4439 93.619C33.4387 66.2857 52.4385 43.5923 78.1159 31.8896C103.788 20.1918 133.381 20.7438 158.6 33.4001C183.819 46.0511 201.955 69.4414 207.923 97.0201C213.891 124.593 207.053 153.389 189.324 175.343C171.595 197.291 144.881 210.036 116.668 209.999L116.667 210Z" fill="#6BB2CB"/>
<path d="M91.5002 91.8333H138.167C144.609 91.8333 149.833 86.6093 149.833 80.1667C149.833 73.724 144.609 68.5 138.167 68.5H91.5002C85.0575 68.5 79.8335 73.724 79.8335 80.1667C79.8335 86.6093 85.0575 91.8333 91.5002 91.8333Z" fill="#6BB2CB"/>
<path d="M163 123H69.6667C63.224 123 58 128.224 58 134.667C58 141.109 63.224 146.333 69.6667 146.333H163C169.443 146.333 174.667 141.109 174.667 134.667C174.667 128.224 169.443 123 163 123Z" fill="#6BB2CB"/>
</svg>
