<svg width="3689" height="1178" viewBox="0 0 3689 1178" fill="none" xmlns="http://www.w3.org/2000/svg">
<path fill-rule="evenodd" clip-rule="evenodd" d="M3176.38 674.433C3176.8 675.268 3176.18 675.683 3174.52 675.683C3173.15 675.683 3170.98 676.067 3169.71 676.537C3164.53 678.448 3161.7 678.808 3162.38 677.473C3162.75 676.764 3162.45 676.858 3161.72 677.683C3158.48 681.348 3156.99 682.006 3155.2 680.555C3154.24 679.772 3153.81 679.69 3154.22 680.365C3154.61 681.019 3154.11 682.135 3153.1 682.865C3152.09 683.59 3150.89 684.858 3150.43 685.683C3149.96 686.508 3151.1 685.833 3152.96 684.183C3155.7 681.745 3155.54 682.068 3152.11 685.911C3149.79 688.511 3147.89 691.153 3147.89 691.783C3147.89 692.552 3147.35 692.477 3146.23 691.555C3144.74 690.324 3144.68 690.393 3145.65 692.224C3146.41 693.648 3146.44 695.688 3145.74 698.974C3145.06 702.129 3145.06 705.24 3145.74 708.4C3146.29 710.994 3146.48 713.539 3146.16 714.054C3145.85 714.57 3146.07 714.691 3146.67 714.323C3147.62 713.732 3148.39 714.949 3149.09 718.183C3149.37 719.504 3156.5 725.43 3159.96 727.215C3161.46 727.991 3164.53 728.921 3166.79 729.282C3169.05 729.643 3170.89 730.358 3170.89 730.87C3170.89 731.382 3170.37 731.48 3169.74 731.088C3169.07 730.677 3168.85 730.81 3169.22 731.402C3169.64 732.088 3171.77 731.937 3175.62 730.946C3178.8 730.131 3182.58 729.419 3184.03 729.364C3185.96 729.291 3186.52 728.847 3186.12 727.724C3185.82 726.876 3185.91 726.488 3186.33 726.861C3186.74 727.233 3188.42 726.02 3190.04 724.164C3191.67 722.308 3193.54 720.917 3194.2 721.072C3194.86 721.228 3195.09 721.178 3194.72 720.962C3193.93 720.498 3197.06 714.699 3198.11 714.689C3198.51 714.686 3198.59 714.054 3198.29 713.284C3198 712.515 3198.2 711.614 3198.73 711.283C3199.27 710.952 3199.45 709.711 3199.14 708.526C3198.8 707.221 3198.97 706.614 3199.58 706.988C3201.36 708.09 3198.98 696.492 3196.28 690.913C3194.88 688.015 3191.98 684.238 3189.84 682.52C3187.7 680.802 3186.23 678.941 3186.58 678.385C3186.92 677.829 3186.73 677.663 3186.16 678.017C3184.76 678.882 3178.72 676.716 3177.07 674.758C3176.34 673.892 3176.03 673.746 3176.38 674.433ZM3190.89 724.624C3190.89 725.142 3191.34 725.84 3191.88 726.176C3192.45 726.526 3192.62 726.125 3192.28 725.235C3191.61 723.503 3190.89 723.186 3190.89 724.624Z" fill="#333333"/>
<path fill-rule="evenodd" clip-rule="evenodd" d="M2824 135V218.608V279.068V289.459V297.961L3021.71 298H3196.84L3223 298V216.242V174.676V135L3209.14 149.647L3209.14 217.703L3209.14 285.68H3020.47H2835.36V150.115H3022.25L3209.14 149.647L3223 135L3020.5 135L2824 135ZM2971.97 167.563C2963.69 169.541 2956.85 176.052 2952.07 186.494C2946.6 198.454 2945.19 237.839 2949.69 253.281C2955.22 272.265 2969.07 282.925 2984.45 280.042C3003.46 276.484 3013.26 257.19 3013.26 223.337C3013.26 182.954 2997.37 161.487 2971.97 167.563ZM3127.04 167.612C3116.81 170.012 3109.4 178.799 3108.46 189.625C3107.46 201.316 3111.58 208.176 3126.15 219.063C3147.13 234.731 3153.45 241.595 3154.57 249.891C3155.43 256.287 3154.77 258.515 3150.5 263.578C3146.26 268.609 3144.07 269.626 3137.47 269.626C3127.28 269.626 3121.8 265.686 3119 256.332C3117.06 249.89 3116 248.843 3111.37 248.843C3104.72 248.843 3104.24 253.491 3109.74 264.819C3116.81 279.398 3135.85 284.909 3151.27 276.841C3162.46 270.992 3167.03 262.463 3166.04 249.296C3165.1 236.719 3159.06 228.884 3139.87 215.337C3122.99 203.417 3119.24 199.149 3119.24 191.828C3119.24 183.732 3122.14 179.521 3129.36 177.142C3139.79 173.707 3149.46 179.483 3152.14 190.745C3153.16 195.013 3154.41 195.941 3159.17 195.941C3164.7 195.941 3164.91 195.661 3163.72 189.801C3160.37 173.227 3144.36 163.542 3127.04 167.612ZM2916.36 216.894L2915.79 264.298L2911.15 268.044C2907.66 270.865 2904.93 271.498 2900.13 270.599C2894.03 269.454 2893.78 269.63 2894.36 274.71C2894.91 279.435 2895.8 280.074 2902.54 280.535C2911.77 281.164 2922.41 276.144 2925.67 269.626C2927.37 266.229 2928.04 251.514 2928.06 217.196L2928.09 169.49H2922.51H2916.92L2916.36 216.894ZM3030.73 223.809L3031.24 278.128L3050.42 277.926C3083.07 277.582 3094.1 268.793 3092.34 244.529C3091.63 234.775 3090.7 232.438 3085.74 228.015C3082.56 225.181 3078.79 222.447 3077.37 221.939C3075.51 221.281 3076.28 219.805 3080.01 216.813C3090.8 208.165 3093.7 195.029 3087.54 182.716C3082.33 172.302 3074.49 169.496 3050.61 169.494L3030.23 169.49L3030.73 223.809ZM2990.09 181.299C2996.46 188.083 2998.44 195.558 2999.5 216.724C3001.16 250.016 2994.23 269.626 2980.79 269.626C2967.91 269.626 2962.77 261.847 2960.56 239.016C2957.81 210.691 2960.86 189.504 2968.83 181.554C2974.78 175.606 2984.64 175.489 2990.09 181.299ZM3072.77 183.188C3079.22 188.86 3080.52 197.075 3076.26 205.388C3072.44 212.853 3064.54 216.446 3051.58 216.618L3043.54 216.724V197.83V178.937H3055.73C3065.69 178.937 3068.82 179.719 3072.77 183.188ZM3074.84 232.003C3084.27 241.412 3082.58 259.401 3071.75 264.991C3068.82 266.505 3061.3 267.736 3054.99 267.736H3043.54V246.74V225.744L3056.81 226.492C3067.89 227.117 3070.86 228.024 3074.84 232.003Z" fill="#333333"/>
<path d="M2561.26 986.796L2558.84 999.217H2404.97L2404.4 994.967C2396.96 939.249 2392.58 915.387 2386.24 896.02C2381.58 881.791 2377.93 879.997 2370.48 888.276C2365.46 893.863 2355.89 911.927 2348.01 930.717C2340.65 948.258 2330.84 975.155 2330.84 977.805C2330.84 980.103 2329.22 981.924 2328.13 980.84C2327.29 979.991 2330.63 937.885 2333.43 914.217C2341.87 842.897 2354.6 805.79 2372.14 801.374C2385.25 798.072 2402.63 811.512 2420.94 839.121C2424.74 844.844 2427.84 849.022 2427.84 848.408C2427.84 847.793 2426.01 838.386 2423.77 827.504C2414.86 784.221 2404.27 747.07 2392.61 718.217C2387.1 704.577 2377.51 684.714 2375.13 682.025C2374.31 681.094 2373.81 679.806 2374.03 679.161C2374.55 677.607 2387.53 687.48 2401.37 699.948C2439.18 734.029 2473.18 781.083 2494.88 829.379L2499.23 839.042L2503.62 824.879C2515.82 785.512 2535.66 747.703 2561.53 714.484C2571.36 701.872 2588.08 683.301 2589.09 683.889C2589.49 684.128 2589.1 685.987 2588.22 688.02C2579.86 707.25 2569.57 744.905 2563.43 778.717C2559.55 800.067 2554.83 829.855 2554.86 832.786C2554.87 833.848 2557.06 830.617 2559.72 825.607C2576.85 793.338 2593.39 782.832 2606.47 795.913C2611.2 800.644 2617.17 813.313 2620.36 825.415C2623.2 836.179 2627.12 860.964 2626.21 862.432C2625.89 862.949 2624.05 860.975 2622.11 858.045C2615.4 847.9 2607.35 841.217 2601.83 841.217C2591.14 841.217 2580.91 860.011 2573.53 893.217C2568.6 915.386 2563.05 957.73 2561.26 986.796Z" fill="#258D8C"/>
<path d="M2527.34 1162.2H2486.5H2429C2409.6 1148.14 2398.25 1131.27 2393.16 1042.72C2391.78 1018.86 2386.13 987.261 2393.16 987.232C2397.93 987.81 2570.18 988.216 2570.47 988.507C2571.17 989.214 2569.2 1022.78 2567.27 1042.72C2561.04 1107.35 2548.07 1149.78 2531.52 1159.7L2527.34 1162.2Z" fill="#333333"/>
<path d="M2724 0L3331.5 0.5L3295 0.469959L3294 35L2760.5 35.5L2760 1162H3294.5L3294 35L3295 0.469959L3331.5 0.5L3331.5 1162.5L3689 1162V1178H0V1162H2724V0Z" fill="#333333"/>
</svg>
