<svg width="322" height="925" viewBox="0 0 322 925" fill="none" xmlns="http://www.w3.org/2000/svg">
<path d="M125.5 107L147 106.5L153.5 111.5L160 115.5L167 119.5L174 123L181 109L187 110L188 113L189.5 116.5L191 120L192.5 124L193 126V128.5L192.5 132L190.5 138L186 151L185.5 154.5V158V161.5L186 165L186.5 169V172.5L192 216.5L196 245.5L176 243L183.5 202L177 161.5L171.5 130.5L157 201.5L162.5 240.5L146 239L148 222L148.5 201L144.5 153.5L136.5 128.5L131.5 117L125.5 107Z" fill="#333333"/>
<path d="M272.8 923.603C271.867 924.536 156 924.803 156 924.803V920.132C156 917.563 156.616 914.75 157.369 913.882C158.339 912.763 158.93 907.586 159.396 896.126L160.055 879.949L157.778 879.626L155.5 879.303L151.256 807.303C148.922 767.703 145.488 708.753 143.624 676.303C141.76 643.853 140.182 617.934 140.117 618.705C140.053 619.477 138.395 630.277 136.433 642.705C132.831 665.521 129.872 677.482 103.998 773.803C100.231 787.828 94.615 808.978 91.519 820.803C88.424 832.628 85.299 843.653 84.576 845.303C83.853 846.953 81.774 853.928 79.956 860.803C78.139 867.678 76.598 873.397 76.533 873.512C76.468 873.627 73.798 873.038 70.6 872.203C67.402 871.368 64.634 870.836 64.448 871.021C64.263 871.207 73.84 879.001 85.73 888.342C111.329 908.455 117.641 915.617 115.279 921.873L114.174 924.803C109.774 923.777 69.6 916.765 46.5 911.72C23.4 906.676 3.487 902.167 2.25 901.7C0.756 901.137 0 900.026 0 898.393C0 895.219 1.70299 890.764 3.44299 889.384C4.19399 888.79 5.587 884.478 6.539 879.803C7.491 875.128 8.81101 870.403 9.47101 869.303C11.122 866.552 13.185 857.912 12.468 856.752C12.146 856.23 11.245 855.803 10.466 855.803C9.476 855.803 9.18902 854.976 9.51202 853.053C14.442 823.685 18.983 801.265 27.489 764.303C34.993 731.696 38.776 711.433 46.344 663.303C51.323 631.645 52.194 623.577 55.473 578.803C57.467 551.578 60.029 518.053 61.166 504.303C62.303 490.553 63.456 472.891 63.728 465.053L64.222 450.803H56.27H48.317L47.661 430.553C47.3 419.415 47.004 384.602 47.003 353.189L47 296.075L42.387 294.313C38.408 292.793 37.448 291.839 35.402 287.369C30.519 276.705 30.269 256.505 34.589 221.823C39.63 181.35 49.261 154.628 66.311 133.809C77.77 119.817 98.24 109.528 119 107.324L125.5 106.635L128.709 111.969C136.367 124.696 142.842 143.15 146.158 161.692C148.894 176.997 149.704 209.237 147.784 226.462L146.429 238.621L153.965 239.575C158.109 240.1 161.633 240.421 161.795 240.288C161.957 240.156 160.868 231.33 159.376 220.675L156.662 201.303L161.884 171.506C164.756 155.118 167.298 140.097 167 139.159C165.5 138 167.288 136.389 168.923 133.919L171.824 129.537L173.971 133.746C175.451 136.647 175.808 138.33 175.119 139.159C174.44 139.978 175.651 150.199 178.907 171.117L183.693 201.871L180.037 222.23L176.38 242.588L182.44 243.249C185.773 243.612 190.102 244.154 192.061 244.454L195.622 244.998L193.346 229.651C190.537 210.705 185 161.78 185 155.905C185 153.376 186.504 147.576 188.62 141.941C193.862 127.983 193.934 126.303 189.676 117.337C187.192 112.105 186.512 109.803 187.45 109.803C188.194 109.803 194.584 111.615 201.651 113.83C214.935 117.994 217.253 118.603 220.293 118.729C222.788 118.832 231.512 127.209 235.993 133.803C241.039 141.229 246.821 152.942 252.282 166.803C256.775 178.203 264 200.789 264 203.43C264 204.185 262.987 204.809 261.75 204.817C256.778 204.847 255.399 205.863 254.189 210.384C252.56 216.476 252.551 216.454 256.532 215.989C258.474 215.762 262.962 215.887 266.506 216.267C272.884 216.95 272.959 216.994 273.969 220.63C274.53 222.65 274.991 233.756 274.994 245.31C275 267.437 275.583 271.666 279.15 275.463C281.312 277.765 281.676 277.803 301.283 277.803H321.217L320.681 280.053C320.386 281.29 317.797 294.116 314.926 308.553L309.708 334.803H276.854H244L244.016 341.053C244.025 344.491 244.692 367.103 245.497 391.303C246.303 415.503 246.97 440.141 246.981 446.053L247 456.803H237.541H228.082L228.156 485.053C228.292 536.922 223.864 831.262 222.921 833.039C222.414 833.994 222 843.086 222 853.242V871.709L218.25 872.75C216.187 873.323 214.047 873.794 213.493 873.797C212.917 873.801 212.635 875.682 212.834 878.188L213.183 882.573L237.755 894.438C253.538 902.059 263.789 907.63 266.413 910.013C268.661 912.053 271.288 914.416 272.25 915.263C274.257 917.029 274.573 921.83 272.8 923.603Z" fill="#A5D6FF"/>
<path d="M148.5 13.3138C155.817 9.26984 172.351 3.04787 180.5 1.27087C188.377 -0.447132 188.194 -0.450163 190.873 1.42584C192.699 2.70584 193.107 3.76484 192.796 6.42584L192.402 9.80285H197.624C204.037 9.80285 208.365 12.9499 210.151 18.9119C211.196 22.4019 211.105 23.1968 209.381 25.5878C208.305 27.0808 204.695 29.6568 201.358 31.3118L195.292 34.3199L195.101 60.1888C194.926 83.9938 194.749 86.3748 192.881 90.0358C191.427 92.8858 189.715 94.4819 186.848 95.6589C182.907 97.2779 182.854 97.3679 183.399 101.521C183.87 105.104 177.477 116.52 174 123.3C167.03 119.812 149.318 110.007 145.646 104.96C139.585 96.6268 139.219 95.3329 139.108 81.8439C139.025 71.8769 138.704 69.2169 137.502 68.5439C133.678 66.4039 131.877 58.6589 134.234 54.4869C135.01 53.1139 135.512 47.6628 135.585 39.8028C135.746 22.5488 137.206 19.5548 148.5 13.3138Z" fill="#A5D6FF"/>
<path fill-rule="evenodd" clip-rule="evenodd" d="M200.887 323.25C200.886 337.138 200.59 362.959 200.228 380.631L199.571 412.762L193.98 413.449C186.873 414.323 154.613 414.887 145.347 414.299L138.304 413.852L138.152 358.579L138 303.306L153.194 302.582C161.551 302.184 174.239 301.055 181.389 300.073C188.539 299.091 195.851 298.223 197.639 298.144L200.889 298L200.887 323.25Z" fill="#333333"/>
</svg>
