<svg width="360" height="961" viewBox="0 0 360 961" fill="none" xmlns="http://www.w3.org/2000/svg">
<path d="M342.88 951.85C345.366 953.285 345.471 960.797 338.247 960.797H127.654V956.003C127.654 953.366 128.155 951.208 128.766 951.208C129.428 951.208 129.877 947.135 129.877 941.119C129.877 931.292 129.958 930.972 133.003 928.813L136.129 926.597L134.121 915.814C130.035 893.875 128.38 868.452 128.346 827.086C128.289 760.696 132.88 722.145 143.348 701.1C145.17 697.437 147.047 694.441 147.52 694.441C149.01 694.441 147.978 672.951 146.088 664.635C143.82 654.652 139.343 620.926 137.033 596.422C134.658 571.217 133.686 515.486 135.324 498.466C136.025 491.175 136.755 485.061 136.944 484.879C129.617 487.609 162.87 360.963 162.3 360.963C160.932 360.963 153.937 340.65 150.514 326.733C145.685 307.103 141.001 276.382 139.327 253.355C138.322 239.544 137.932 237.995 135.155 236.825C133.577 236.159 132.688 234.888 132.743 233.376C132.792 232.059 132.739 230.981 132.624 230.981C132.51 230.981 129.058 232.659 124.953 234.71C116.751 238.809 112.027 239.331 105.777 236.827C103.565 235.941 101.63 235.341 101.479 235.495C99.7852 237.228 84.3135 295.44 84.3135 300.083C84.3135 300.566 86.2872 301.529 88.6999 302.222C95.4677 304.165 98.7239 308.318 106.475 324.885C110.414 333.301 117.652 348.098 122.56 357.767C130.589 373.583 131.472 375.934 131.361 381.206C131.293 384.429 130.416 389.33 129.413 392.098C127.613 397.057 127.629 397.209 130.486 402.615C134.074 409.405 133.491 412.567 128.202 414.985C125.64 416.156 123.969 417.885 123.177 420.187C121.937 423.791 120.277 424.888 116.067 424.888C114.683 424.888 112.614 425.882 111.468 427.095C109.908 428.749 108.261 429.235 104.906 429.036C102.443 428.89 99.0984 429.136 97.4748 429.584C93.104 430.788 90.6268 428.932 88.2909 422.703C86.9884 419.231 84.598 415.746 81.9398 413.444C76.3421 408.596 72.1958 401.381 66.7804 387.066C58.1811 364.332 54.8194 344.043 55.7018 320.193C56.2519 305.316 57.7055 298.219 60.2515 297.985C60.9561 297.92 62.6218 297.95 63.9532 298.052C66.0535 298.212 66.4626 297.554 67.0293 293.108C69.6487 272.55 75.8765 249.919 84.4702 229.728L88.8577 219.418L86.8628 213.747C84.0612 205.776 84.2335 190.862 87.2185 183.037C89.9879 175.779 95.65 171.315 111.541 163.862C123.497 158.253 133.856 155.266 142.33 154.981C145.648 154.87 147.643 154.317 147.649 153.509C147.653 152.797 148.647 151.707 149.855 151.087C151.61 150.187 152.525 150.414 154.404 152.214C156.577 154.298 158.084 154.486 174.433 154.695L192.11 154.919L192.126 150.6C192.134 148.224 192.434 145.232 192.793 143.951C193.361 141.919 192.897 141.538 189.165 140.96C169.382 137.9 156.156 132.607 146.711 123.97C140.955 118.706 139.713 118.046 135.56 118.046C129.327 118.046 125.438 114.491 125.416 108.772C125.396 103.245 124.345 99.9339 122.613 99.9339C121.632 99.9339 120.942 97.6081 120.48 92.7423C120.104 88.7874 119.573 84.2135 119.3 82.5802C118.969 80.6017 119.353 79.4074 120.45 79.0036C121.68 78.5508 122.098 76.5819 122.098 71.2388C122.098 62.4373 124.223 59.9506 132.655 58.882L138.212 58.1788L138.243 49.4903C138.275 40.4299 140.97 25.9774 143.965 18.7997C146.062 13.7762 148.924 12.2111 159.923 10.0685C192.576 3.71005 294.236 -2.66652 302.104 1.1509C305.797 2.94188 310.179 11.4717 315.944 28.0891L320.724 41.8682L327.819 41.9321C339.048 42.0334 341.311 43.9362 342.633 54.388C343.361 60.1456 343.566 60.477 346.014 59.8878C348.473 59.2965 348.659 59.6107 349.308 65.4801C349.686 68.9012 350.255 73.7223 350.574 76.193C351.112 80.3663 350.942 80.736 348.19 81.3987C345.567 82.0294 345.296 82.5067 345.816 85.5783C346.601 90.214 344.999 96.597 342.437 99.0549C341.231 100.21 338.017 101.315 334.797 101.681C329.402 102.294 329.143 102.483 326.079 108.094C319.086 120.9 300.631 131.263 275.18 136.672L266.568 138.503V145.731C266.568 152.266 266.835 153.127 269.346 154.705C270.874 155.665 272.124 157.399 272.124 158.557C272.124 160.51 272.912 160.664 282.96 160.676C293.41 160.688 302.366 162.195 307.434 164.796C309.308 165.757 310.368 165.733 312.109 164.69C314.855 163.046 318.074 164.589 318.575 167.791C318.763 168.987 320.614 170.687 322.839 171.704C336.178 177.803 352.701 201.361 358.278 222.237C359.911 228.343 359.882 229.002 357.726 234.89C356.475 238.307 353.611 243.667 351.361 246.803C347.514 252.161 338.683 259.748 336.291 259.748C335.055 259.748 335.147 260.197 339.708 276.794C342.781 287.973 344.13 294.841 346.027 308.961C346.655 313.641 346.923 313.979 350.244 314.288C356.386 314.859 357.148 317.926 357.08 341.785C357.028 360.216 356.679 364.109 353.989 376.283C350.961 389.986 345.452 405.772 340.186 415.832C335.532 424.727 331.088 429.843 325.474 432.773C320.932 435.143 319.817 436.385 318.078 441.022C316.819 444.38 315.089 446.893 313.581 447.551C310.567 448.868 309.78 455.838 311.784 463.482C316.489 481.441 318.876 510.288 318.874 549.172C318.871 590.207 317.011 612.903 311.479 639.353L309.742 647.659L313.055 652.671C318.577 661.028 320.275 667.172 320.327 678.992C320.38 690.609 318.698 697.227 313.289 706.693C310.371 711.802 310.217 712.85 309.524 732.263C307.218 796.856 296.284 885.171 286.751 916.192L284.579 923.261L309.1 933.772C323.5 939.946 335.11 945.602 337.232 947.479C339.219 949.237 341.761 951.204 342.88 951.85Z" fill="#49B3E3"/>
<path fill-rule="evenodd" clip-rule="evenodd" d="M213.456 61.9099C219.582 67.7814 216.352 79.7931 207.564 79.7931C201.991 79.7931 197.985 76.0055 197.985 70.737C197.985 62.5386 207.368 56.0725 213.456 61.9099ZM285.032 62.7058C287.749 64.1004 289.961 69.5789 289.113 72.8178C288.083 76.7535 284.108 79.7931 279.991 79.7931C274.876 79.7931 273.028 78.8832 271.179 75.4547C268.808 71.0599 269.183 67.2669 272.281 64.2965C275.184 61.5137 281.236 60.7582 285.032 62.7058ZM266.243 87.7807C260.227 97.7541 245.895 102.687 237.464 98.5074C234.667 97.1202 226.212 89.0602 226.212 87.7807C226.212 87.4898 234.493 87.2512 244.614 87.2512C259.023 87.2512 266.872 86.7376 266.243 87.7807ZM322.243 285.332C328.173 308.659 329.418 316.318 327.28 316.318C326.476 316.318 323.585 317.355 320.853 318.623C316.038 320.857 315.584 321.516 306 340.198C300.563 350.796 296.351 358.685 296.64 357.729C301.202 342.624 306.455 312.101 309.159 284.972L311.097 265.532H314.154C317.198 265.532 317.23 265.612 322.243 285.332ZM226.907 499.118L230.102 499.73L230.148 532.412C230.198 566.967 231.284 584.585 235.708 622.627C239.388 654.265 242.106 669.024 245.485 675.703C247.022 678.74 248.512 683.567 248.795 686.43C249.229 690.821 248.814 692.385 246.135 696.435C236.368 711.2 231.804 738.443 229.485 795.826C227.688 840.279 230.404 895.077 235.589 918.99L237.014 925.559L233.836 927.811C230.999 929.822 230.657 930.704 230.657 936.006C230.657 941.226 230.421 941.862 228.712 941.238C227.642 940.848 217.124 936.391 205.336 931.336C188.334 924.043 184.05 921.799 184.609 920.478C186.462 916.104 191.796 893.975 193.871 882.057C200.384 844.632 207.463 774.593 209.107 731.301C209.847 711.836 209.995 710.853 212.959 705.73C221.438 691.079 222.544 672.136 215.759 657.766L213.234 652.418L215.777 640.306C222.136 610.014 224.559 577.171 223.567 534.73C223.177 518.029 222.554 503.047 222.182 501.435C221.465 498.319 221.822 498.143 226.907 499.118Z" fill="#333333"/>
<path d="M84.4593 416.048C86.6819 418.712 88.3489 422.441 88.3489 422.441C85.5706 421.376 83.8125 423.811 84.9361 428.102C85.5573 430.475 86.0785 430.749 88.8523 430.165C91.1983 429.672 92.3285 429.965 93.0864 431.264C94.0176 432.859 95.9546 432.48 112.485 427.458C128.413 422.619 130.777 421.618 130.312 419.91C129.931 418.512 130.617 417.632 132.677 416.882C135.985 415.676 137.143 411.156 134.468 408.59C134.468 408.59 133.788 406.992 132.677 408.058C132.677 408.058 130.343 402.723 130.052 402.229C130.033 402.226 130.023 402.216 130.023 402.198C130.023 402.185 130.033 402.197 130.052 402.229C130.258 402.266 131.511 401.574 133.012 401.692C136.822 401.995 140.73 405.505 142.284 410.017C143.36 413.141 143.79 413.43 146.111 412.584C148.138 411.845 149.062 412.073 150.211 413.592C151.619 415.456 153.528 414.989 188.3 404.285C215.925 395.78 222.261 394.74 224.484 394.207C224.818 395.168 273.381 535.324 273.381 535.324C200.993 557.58 48.4752 607.497 48.2618 607.257C47.9406 606.892 0 463.085 0 462.484C0 462.199 16.5129 456.965 36.6942 450.853C71.307 440.374 73.3563 439.612 72.8128 437.43C72.3472 435.561 72.8439 434.99 75.4033 434.451C78.5227 433.794 78.5538 433.713 77.4569 429.117C76.0489 423.219 79.8874 418.315 84.4593 416.048Z" fill="#333333"/>
</svg>
