<svg width="3689" height="1179" viewBox="0 0 3689 1179" fill="none" xmlns="http://www.w3.org/2000/svg">
<path d="M565 219.576L589.78 219L597.271 224.763L604.763 229.373L612.831 233.983L620.898 238.017L628.966 221.881L635.882 223.034L637.034 226.492L638.763 230.525L640.492 234.559L642.221 239.17L642.797 241.475V244.356L642.221 248.39L639.915 255.305L634.729 270.288L634.153 274.322V278.356V282.39L634.729 286.424L635.305 291.034V295.068L641.644 345.78L646.254 379.204L623.204 376.322L631.848 329.068L624.356 282.39L618.017 246.661L601.305 328.492L607.644 373.441L588.627 371.712L590.932 352.119L591.509 327.915L586.898 273.17L577.678 244.356L571.915 231.102L565 219.576Z" fill="#333333"/>
<path d="M735.414 1160.49C734.339 1161.57 600.797 1161.88 600.797 1161.88V1156.49C600.797 1153.53 601.507 1150.29 602.375 1149.29C603.493 1148 604.174 1142.03 604.711 1128.83L605.471 1110.18L602.846 1109.81L600.221 1109.44L595.329 1026.45C592.639 980.812 588.681 912.869 586.533 875.469C584.385 838.069 582.566 808.196 582.491 809.085C582.417 809.975 580.506 822.422 578.245 836.746C574.094 863.043 570.683 876.828 540.862 987.843C536.521 1004.01 530.048 1028.38 526.48 1042.01C522.913 1055.64 519.311 1068.35 518.478 1070.25C517.644 1072.15 515.248 1080.19 513.153 1088.11C511.059 1096.04 509.283 1102.63 509.208 1102.76C509.133 1102.89 506.055 1102.22 502.37 1101.25C498.684 1100.29 495.494 1099.68 495.279 1099.89C495.066 1100.1 506.104 1109.09 519.808 1119.85C549.312 1143.04 556.587 1151.29 553.864 1158.5L552.591 1161.88C547.519 1160.69 501.217 1152.61 474.593 1146.8C447.97 1140.98 425.019 1135.79 423.593 1135.25C421.871 1134.6 421 1133.32 421 1131.44C421 1127.78 422.963 1122.65 424.968 1121.05C425.834 1120.37 427.439 1115.4 428.536 1110.01C429.634 1104.62 431.155 1099.18 431.916 1097.91C433.819 1094.74 436.196 1084.78 435.37 1083.44C434.999 1082.84 433.96 1082.35 433.063 1082.35C431.922 1082.35 431.591 1081.4 431.963 1079.18C437.645 1045.33 442.879 1019.49 452.682 976.893C461.331 939.312 465.691 915.958 474.414 860.486C480.152 823.999 481.156 814.7 484.935 763.096C487.233 731.718 490.186 693.079 491.497 677.232C492.807 661.384 494.136 641.028 494.449 631.994L495.019 615.57H485.854H476.688L475.931 592.231C475.515 579.394 475.174 539.271 475.173 503.066L475.17 437.24L469.853 435.209C465.267 433.457 464.16 432.357 461.802 427.206C456.174 414.915 455.886 391.633 460.865 351.661C466.675 305.014 477.775 274.216 497.426 250.221C510.633 234.094 534.226 222.236 558.153 219.696L565.644 218.901L569.343 225.049C578.169 239.718 585.632 260.987 589.454 282.357C592.607 299.997 593.541 337.155 591.328 357.007L589.766 371.021L598.452 372.121C603.228 372.726 607.289 373.096 607.476 372.943C607.663 372.79 606.408 362.618 604.688 350.338L601.56 328.011L607.579 293.668C610.889 274.78 613.818 257.468 613.475 256.387C611.746 255.051 613.807 253.194 615.691 250.348L619.035 245.297L621.509 250.148C623.215 253.492 623.627 255.431 622.833 256.387C622.05 257.331 623.446 269.111 627.198 293.22L632.714 328.665L628.501 352.13L624.286 375.593L631.27 376.355C635.112 376.774 640.101 377.398 642.359 377.744L646.463 378.371L643.84 360.683C640.602 338.847 634.221 282.459 634.221 275.687C634.221 272.773 635.954 266.088 638.393 259.593C644.435 243.506 644.518 241.57 639.61 231.236C636.747 225.206 635.963 222.553 637.045 222.553C637.902 222.553 645.267 224.641 653.412 227.194C668.722 231.993 671.394 232.695 674.898 232.84C677.773 232.959 687.828 242.614 692.992 250.214C698.808 258.773 705.472 272.272 711.766 288.248C716.945 301.387 725.272 327.418 725.272 330.462C725.272 331.332 724.104 332.051 722.679 332.061C716.948 332.095 715.359 333.266 713.964 338.477C712.087 345.498 712.076 345.473 716.665 344.937C718.903 344.675 724.075 344.819 728.16 345.257C735.511 346.044 735.597 346.095 736.762 350.286C737.408 352.614 737.939 365.414 737.943 378.731C737.95 404.233 738.622 409.107 742.733 413.483C745.225 416.137 745.644 416.18 768.242 416.18H791.217L790.599 418.773C790.259 420.199 787.275 434.982 783.966 451.621L777.952 481.875H740.087H702.221L702.239 489.079C702.25 493.041 703.019 519.103 703.946 546.994C704.875 574.886 705.644 603.282 705.657 610.096L705.679 622.486H694.777H683.875L683.96 655.045C684.117 714.827 679.013 1054.07 677.926 1056.11C677.342 1057.22 676.865 1067.69 676.865 1079.4V1100.68L672.543 1101.88C670.165 1102.54 667.699 1103.09 667.06 1103.09C666.396 1103.09 666.071 1105.26 666.301 1108.15L666.703 1113.2L695.023 1126.88C713.214 1135.66 725.029 1142.08 728.053 1144.83C730.644 1147.18 733.672 1149.91 734.78 1150.88C737.094 1152.92 737.458 1158.45 735.414 1160.49Z" fill="#A5D6FF"/>
<path d="M592.153 111.345C600.586 106.684 619.642 99.5128 629.034 97.4647C638.113 95.4847 637.902 95.4812 640.99 97.6433C643.094 99.1186 643.564 100.339 643.206 103.406L642.752 107.298H648.771C656.162 107.298 661.15 110.925 663.208 117.797C664.413 121.819 664.308 122.735 662.321 125.491C661.081 127.212 656.92 130.181 653.074 132.088L646.083 135.555L645.863 165.37C645.661 192.807 645.457 195.551 643.304 199.77C641.628 203.055 639.655 204.895 636.351 206.251C631.809 208.117 631.747 208.221 632.376 213.007C632.918 217.137 625.55 230.294 621.543 238.109C613.51 234.088 593.096 222.788 588.864 216.971C581.878 207.367 581.456 205.875 581.328 190.329C581.233 178.841 580.863 175.776 579.477 175C575.07 172.533 572.994 163.607 575.711 158.799C576.605 157.216 577.184 150.934 577.268 141.875C577.453 121.989 579.136 118.538 592.153 111.345Z" fill="#A5D6FF"/>
<path fill-rule="evenodd" clip-rule="evenodd" d="M652.531 468.56C652.53 484.566 652.189 514.326 651.772 534.694L651.014 571.726L644.571 572.518C636.379 573.525 599.198 574.175 588.519 573.498L580.401 572.983L580.226 509.278L580.051 445.573L597.563 444.739C607.195 444.28 621.818 442.979 630.059 441.847C638.3 440.715 646.727 439.715 648.788 439.624L652.534 439.458L652.531 468.56Z" fill="#333333"/>
<path d="M2110.29 1163.13C2112.95 1165.31 2112.58 1171.9 2110.29 1173.99H1955.46L1955.42 1173.7C1954.92 1169.65 1954.07 1162.82 1955.46 1161.89C1958.59 1159.82 1959.02 1135.59 1956.88 1081.07C1954.75 1026.82 1955.25 979.739 1958.16 960.275C1959.17 953.568 1961.89 936.88 1964.2 923.19L1968.42 898.301L1966.12 878.293C1964.85 867.29 1963.46 857.782 1963.02 857.165C1962.57 856.526 1947.96 855.725 1928.96 855.297C1910.65 854.888 1893.28 854.246 1890.36 853.875C1885.93 853.31 1884.93 853.553 1884.33 855.342C1883.94 856.521 1867.44 913.41 1847.66 981.763C1827.89 1050.11 1809.92 1112.05 1807.74 1119.4C1804.2 1131.29 1803.8 1134.28 1804.04 1146.69C1804.2 1154.36 1804.86 1161.12 1805.52 1161.73C1806.18 1162.34 1806.72 1165.34 1806.72 1168.41V1178.05H1649.72L1647.36 1169.92C1646.23 1167.19 1647.95 1166.68 1649.72 1164.23C1650.92 1162.57 1652.58 1161.21 1653.42 1161.21C1654.25 1161.21 1656.98 1159.41 1659.47 1157.21C1662.71 1154.35 1672.38 1149.86 1693.44 1141.43C1709.63 1134.96 1724.45 1129.13 1726.36 1128.49C1728.87 1127.65 1730.04 1126.3 1730.53 1123.65C1731.39 1118.99 1770.65 836.359 1771.25 830.472C1771.49 828.153 1769.75 827.192 1756.16 822.168C1747.71 819.044 1736.93 814.867 1732.19 812.887C1724.21 809.547 1723.63 809.057 1724.17 806.092C1724.47 804.453 1726.25 794.746 1728.23 783.934L1728.66 781.576C1737.96 730.779 1753.38 674.443 1770.83 627.57C1773.67 619.935 1776 613.589 1776 613.471C1776 613.353 1774 612.916 1771.56 612.5C1769.12 612.083 1765.51 610.535 1763.56 609.059C1761.6 607.582 1759.35 606.579 1758.56 606.83C1756.23 607.57 1741.73 592.457 1732.17 579.315C1716.8 558.184 1700.29 524.267 1692.89 498.6C1689.77 487.819 1689.38 471.43 1692.02 462.434C1696.2 448.182 1755.94 359.949 1786.41 323.012C1804.55 301.025 1813.83 291.869 1821.87 288.005C1828.32 284.904 1844.74 279.837 1854.37 277.976L1857.87 277.3L1853.54 272.149C1843.97 260.771 1842.34 243.642 1849.57 230.247C1856.56 217.268 1876.87 203.357 1891.98 201.187C1894.88 200.771 1897.93 200.048 1898.76 199.579C1899.6 199.111 1903.57 192.815 1907.58 185.588C1912.81 176.178 1916.28 171.429 1919.8 168.85C1924.68 165.288 1924.88 165.252 1939.64 165.252H1954.55L1962.63 159.286C1967.07 156.004 1972.44 153.006 1974.55 152.622C1979.91 151.649 1985.7 154.162 1991.48 159.977C2003.17 171.73 2005.65 184.856 1998.71 198.168C1994.71 205.838 1993.97 211.15 1996.17 216.389C1996.88 218.087 2002.36 224.093 2008.34 229.736C2022.42 243.02 2026.87 251.04 2026.87 263.143C2026.87 268.592 2025.94 274.108 2024.25 278.653L2021.64 285.708L2027.97 291.787C2035.74 299.239 2040.54 307.701 2046.45 324.373C2054.03 345.724 2070.48 403.679 2080.57 444.585L2083.3 455.619L2104.65 466.072C2116.4 471.821 2130.93 478.911 2136.96 481.827L2147.91 487.13L2161.95 460.586C2169.67 445.986 2176.93 433.551 2178.09 432.953C2179.67 432.13 2190.5 436.445 2222.25 450.553C2245.38 460.832 2272.51 472.804 2282.54 477.156C2293.52 481.915 2300.78 485.734 2300.78 486.739C2300.78 487.658 2295.04 499.074 2288.03 512.108C2278.76 529.317 2275.48 536.538 2276.04 538.48C2276.55 540.242 2275.88 542.294 2274.08 544.507C2272.58 546.351 2271.35 548.829 2271.35 550.011C2271.35 553.787 2262.51 568.668 2259.81 569.446C2258.26 569.893 2257.27 571.204 2257.27 572.802C2257.27 574.245 2255.93 576.564 2254.29 577.958C2252.66 579.351 2245.96 590.648 2239.41 603.064C2232.86 615.482 2226.65 625.934 2225.62 626.294C2222.7 627.309 2105.32 575.73 2104.13 572.909C2103.67 571.841 2106.22 565.55 2110.11 558.113C2113.83 550.997 2116.36 544.998 2115.71 544.782C2115.07 544.566 2102.74 540.02 2088.31 534.682C2073.88 529.343 2061.97 525.054 2061.85 525.152C2061.72 525.248 2064.18 532.158 2067.3 540.507C2079.39 572.828 2091.57 623.265 2097.16 664.102C2101.77 697.838 2102.52 709.092 2103.19 754.115C2103.84 798.278 2102.87 822.55 2100.47 822.746C2099.77 822.803 2094.29 824.952 2088.31 827.52C2082.33 830.088 2075.28 832.888 2072.64 833.743C2068.82 834.982 2067.72 836.015 2067.21 838.842C2066.85 840.792 2059.06 904.322 2049.9 980.02C2040.74 1055.72 2032.91 1119.8 2032.5 1122.43L2031.76 1127.2L2064.74 1140.42C2087.16 1149.39 2099.15 1154.84 2102.16 1157.42C2104.6 1159.5 2106.89 1161.21 2107.27 1161.21C2107.64 1161.21 2109 1162.07 2110.29 1163.13Z" fill="#8DD2FB"/>
<path fill-rule="evenodd" clip-rule="evenodd" d="M1946 259.401L1958.79 267.297L1964.48 265.126C1968.5 263.591 1971.29 263.22 1974.01 263.862C1976.12 264.362 1981.8 265.1 1986.62 265.502C1995.31 266.227 1995.39 266.265 1994.72 269.346C1993.83 273.349 1991.36 313.656 1990.24 342.323L1989.37 364.615L1973.37 345.25C1951.19 318.411 1928.93 293.344 1914.17 278.593C1907.31 271.735 1901.69 265.839 1901.69 265.492C1901.69 265.145 1904.72 264.854 1908.41 264.845C1918.16 264.823 1919.66 264.157 1925.81 257.14C1928.86 253.653 1931.78 250.958 1932.29 251.152C1932.8 251.346 1938.96 255.057 1946 259.401ZM1843.85 410.813C1845.94 416.459 1851.15 429.534 1855.42 439.867L1863.19 458.656L1856.69 468.904C1847.01 484.165 1830.39 514.905 1819.74 537.225L1813 550.801C1808.52 549.639 1802.05 528.979 1802.05 528.979C1791.34 496.412 1784.92 473.91 1785.52 471.043C1785.81 469.695 1797.23 451.268 1810.91 430.096L1835.77 391.601L1837.91 396.074C1839.09 398.534 1841.76 405.167 1843.85 410.813Z" fill="#F6F5F4"/>
<path d="M1355.88 1168.85C1358.37 1170.28 1358.47 1177.8 1351.25 1177.8H1140.65V1173C1140.65 1170.37 1141.15 1168.21 1141.77 1168.21C1142.43 1168.21 1142.88 1164.14 1142.88 1158.12C1142.88 1148.29 1142.96 1147.97 1146 1145.81L1149.13 1143.6L1147.12 1132.81C1143.03 1110.87 1141.38 1085.45 1141.35 1044.09C1141.29 977.696 1145.88 939.145 1156.35 918.1C1158.17 914.437 1160.05 911.441 1160.52 911.441C1162.01 911.441 1160.98 889.951 1159.09 881.635C1156.82 871.652 1152.34 837.926 1150.03 813.422C1147.66 788.217 1146.69 732.486 1148.32 715.466C1149.02 708.175 1149.75 702.061 1149.94 701.879C1142.62 704.609 1175.87 577.963 1175.3 577.963C1173.93 577.963 1166.94 557.65 1163.51 543.733C1158.69 524.103 1154 493.382 1152.33 470.355C1151.32 456.544 1150.93 454.995 1148.15 453.825C1146.58 453.159 1145.69 451.888 1145.74 450.376C1145.79 449.059 1145.74 447.981 1145.62 447.981C1145.51 447.981 1142.06 449.659 1137.95 451.71C1129.75 455.809 1125.03 456.331 1118.78 453.827C1116.56 452.941 1114.63 452.341 1114.48 452.495C1112.79 454.228 1097.31 512.44 1097.31 517.083C1097.31 517.566 1099.29 518.529 1101.7 519.222C1108.47 521.165 1111.72 525.318 1119.48 541.885C1123.41 550.301 1130.65 565.098 1135.56 574.767C1143.59 590.583 1144.47 592.934 1144.36 598.206C1144.29 601.429 1143.42 606.33 1142.41 609.098C1140.61 614.057 1140.63 614.209 1143.49 619.615C1147.07 626.405 1146.49 629.567 1141.2 631.985C1138.64 633.156 1136.97 634.885 1136.18 637.187C1134.94 640.791 1133.28 641.888 1129.07 641.888C1127.68 641.888 1125.61 642.882 1124.47 644.095C1122.91 645.749 1121.26 646.235 1117.91 646.036C1115.44 645.89 1112.1 646.136 1110.47 646.584C1106.1 647.788 1103.63 645.932 1101.29 639.703C1099.99 636.231 1097.6 632.746 1094.94 630.444C1089.34 625.596 1085.2 618.381 1079.78 604.066C1071.18 581.332 1067.82 561.043 1068.7 537.193C1069.25 522.316 1070.71 515.219 1073.25 514.985C1073.96 514.92 1075.62 514.95 1076.95 515.052C1079.05 515.212 1079.46 514.554 1080.03 510.108C1082.65 489.55 1088.88 466.919 1097.47 446.728L1101.86 436.418L1099.86 430.747C1097.06 422.776 1097.23 407.862 1100.22 400.037C1102.99 392.779 1108.65 388.315 1124.54 380.862C1136.5 375.253 1146.86 372.266 1155.33 371.981C1158.65 371.87 1160.64 371.317 1160.65 370.509C1160.65 369.797 1161.65 368.707 1162.86 368.087C1164.61 367.187 1165.53 367.414 1167.4 369.214C1169.58 371.298 1171.08 371.486 1187.43 371.695L1205.11 371.919L1205.13 367.6C1205.13 365.224 1205.43 362.232 1205.79 360.951C1206.36 358.919 1205.9 358.538 1202.17 357.96C1182.38 354.9 1169.16 349.607 1159.71 340.97C1153.95 335.706 1152.71 335.046 1148.56 335.046C1142.33 335.046 1138.44 331.491 1138.42 325.772C1138.4 320.245 1137.35 316.934 1135.61 316.934C1134.63 316.934 1133.94 314.608 1133.48 309.742C1133.1 305.787 1132.57 301.214 1132.3 299.58C1131.97 297.602 1132.35 296.407 1133.45 296.004C1134.68 295.551 1135.1 293.582 1135.1 288.239C1135.1 279.437 1137.22 276.951 1145.66 275.882L1151.21 275.179L1151.24 266.49C1151.28 257.43 1153.97 242.977 1156.97 235.8C1159.06 230.776 1161.92 229.211 1172.92 227.069C1205.58 220.71 1307.24 214.333 1315.1 218.151C1318.8 219.942 1323.18 228.472 1328.94 245.089L1333.72 258.868L1340.82 258.932C1352.05 259.033 1354.31 260.936 1355.63 271.388C1356.36 277.146 1356.57 277.477 1359.01 276.888C1361.47 276.296 1361.66 276.611 1362.31 282.48C1362.69 285.901 1363.25 290.722 1363.57 293.193C1364.11 297.366 1363.94 297.736 1361.19 298.399C1358.57 299.029 1358.3 299.507 1358.82 302.578C1359.6 307.214 1358 313.597 1355.44 316.055C1354.23 317.21 1351.02 318.315 1347.8 318.681C1342.4 319.294 1342.14 319.483 1339.08 325.094C1332.09 337.9 1313.63 348.263 1288.18 353.672L1279.57 355.503V362.731C1279.57 369.266 1279.83 370.127 1282.35 371.705C1283.87 372.665 1285.12 374.399 1285.12 375.557C1285.12 377.51 1285.91 377.664 1295.96 377.676C1306.41 377.688 1315.37 379.195 1320.43 381.796C1322.31 382.757 1323.37 382.733 1325.11 381.69C1327.86 380.046 1331.07 381.589 1331.57 384.791C1331.76 385.987 1333.61 387.687 1335.84 388.704C1349.18 394.803 1365.7 418.361 1371.28 439.237C1372.91 445.343 1372.88 446.002 1370.73 451.89C1369.47 455.307 1366.61 460.667 1364.36 463.803C1360.51 469.161 1351.68 476.748 1349.29 476.748C1348.06 476.748 1348.15 477.197 1352.71 493.794C1355.78 504.973 1357.13 511.841 1359.03 525.961C1359.66 530.641 1359.92 530.979 1363.24 531.288C1369.39 531.859 1370.15 534.926 1370.08 558.785C1370.03 577.216 1369.68 581.109 1366.99 593.283C1363.96 606.986 1358.45 622.772 1353.19 632.832C1348.53 641.727 1344.09 646.843 1338.47 649.773C1333.93 652.143 1332.82 653.385 1331.08 658.022C1329.82 661.38 1328.09 663.893 1326.58 664.551C1323.57 665.868 1322.78 672.838 1324.78 680.482C1329.49 698.441 1331.88 727.288 1331.87 766.172C1331.87 807.207 1330.01 829.903 1324.48 856.353L1322.74 864.659L1326.05 869.671C1331.58 878.028 1333.28 884.172 1333.33 895.992C1333.38 907.609 1331.7 914.227 1326.29 923.693C1323.37 928.802 1323.22 929.85 1322.52 949.263C1320.22 1013.86 1309.28 1102.17 1299.75 1133.19L1297.58 1140.26L1322.1 1150.77C1336.5 1156.95 1348.11 1162.6 1350.23 1164.48C1352.22 1166.24 1354.76 1168.2 1355.88 1168.85Z" fill="#49B3E3"/>
<path fill-rule="evenodd" clip-rule="evenodd" d="M1226.46 278.91C1232.58 284.781 1229.35 296.793 1220.56 296.793C1214.99 296.793 1210.98 293.005 1210.98 287.737C1210.98 279.539 1220.37 273.072 1226.46 278.91ZM1298.03 279.706C1300.75 281.1 1302.96 286.579 1302.11 289.818C1301.08 293.753 1297.11 296.793 1292.99 296.793C1287.88 296.793 1286.03 295.883 1284.18 292.455C1281.81 288.06 1282.18 284.267 1285.28 281.297C1288.18 278.514 1294.24 277.758 1298.03 279.706ZM1279.24 304.781C1273.23 314.754 1258.9 319.687 1250.46 315.507C1247.67 314.12 1239.21 306.06 1239.21 304.781C1239.21 304.49 1247.49 304.251 1257.61 304.251C1272.02 304.251 1279.87 303.738 1279.24 304.781ZM1335.24 502.332C1341.17 525.659 1342.42 533.318 1340.28 533.318C1339.48 533.318 1336.58 534.355 1333.85 535.623C1329.04 537.857 1328.58 538.516 1319 557.198C1313.56 567.796 1309.35 575.685 1309.64 574.729C1314.2 559.624 1319.46 529.101 1322.16 501.972L1324.1 482.532H1327.15C1330.2 482.532 1330.23 482.612 1335.24 502.332ZM1239.91 716.118L1243.1 716.73L1243.15 749.412C1243.2 783.967 1244.28 801.585 1248.71 839.627C1252.39 871.265 1255.11 886.024 1258.49 892.703C1260.02 895.74 1261.51 900.567 1261.79 903.43C1262.23 907.821 1261.81 909.385 1259.14 913.435C1249.37 928.2 1244.8 955.443 1242.48 1012.83C1240.69 1057.28 1243.4 1112.08 1248.59 1135.99L1250.01 1142.56L1246.84 1144.81C1244 1146.82 1243.66 1147.7 1243.66 1153.01C1243.66 1158.23 1243.42 1158.86 1241.71 1158.24C1240.64 1157.85 1230.12 1153.39 1218.34 1148.34C1201.33 1141.04 1197.05 1138.8 1197.61 1137.48C1199.46 1133.1 1204.8 1110.97 1206.87 1099.06C1213.38 1061.63 1220.46 991.593 1222.11 948.301C1222.85 928.836 1222.99 927.853 1225.96 922.73C1234.44 908.079 1235.54 889.136 1228.76 874.766L1226.23 869.418L1228.78 857.306C1235.14 827.014 1237.56 794.171 1236.57 751.73C1236.18 735.029 1235.55 720.047 1235.18 718.435C1234.46 715.319 1234.82 715.143 1239.91 716.118Z" fill="#F6F5F4"/>
<path d="M1097.46 633.048C1099.68 635.712 1101.35 639.441 1101.35 639.441C1098.57 638.376 1096.81 640.811 1097.94 645.102C1098.56 647.475 1099.08 647.749 1101.85 647.165C1104.2 646.672 1105.33 646.965 1106.09 648.264C1107.02 649.859 1108.95 649.48 1125.49 644.458C1141.41 639.619 1143.78 638.618 1143.31 636.91C1142.93 635.512 1143.62 634.632 1145.68 633.882C1148.99 632.676 1150.14 628.156 1147.47 625.59C1147.47 625.59 1146.79 623.992 1145.68 625.058C1145.68 625.058 1143.34 619.723 1143.05 619.229C1143.03 619.226 1143.02 619.216 1143.02 619.198C1143.02 619.185 1143.03 619.197 1143.05 619.229C1143.26 619.266 1144.51 618.574 1146.01 618.692C1149.82 618.995 1153.73 622.505 1155.28 627.017C1156.36 630.141 1156.79 630.43 1159.11 629.584C1161.14 628.845 1162.06 629.073 1163.21 630.592C1164.62 632.456 1166.53 631.989 1201.3 621.285C1228.92 612.78 1235.26 611.74 1237.48 611.207C1237.82 612.168 1286.38 752.324 1286.38 752.324C1213.99 774.58 1061.48 824.497 1061.26 824.257C1060.94 823.892 1013 680.085 1013 679.484C1013 679.199 1029.51 673.965 1049.69 667.853C1084.31 657.374 1086.36 656.612 1085.81 654.43C1085.35 652.561 1085.84 651.99 1088.4 651.451C1091.52 650.794 1091.55 650.713 1090.46 646.117C1089.05 640.219 1092.89 635.315 1097.46 633.048Z" fill="#333333"/>
<path fill-rule="evenodd" clip-rule="evenodd" d="M3176.38 674.433C3176.8 675.268 3176.18 675.683 3174.52 675.683C3173.15 675.683 3170.98 676.067 3169.71 676.537C3164.53 678.448 3161.7 678.808 3162.38 677.473C3162.75 676.764 3162.45 676.858 3161.72 677.683C3158.48 681.348 3156.99 682.006 3155.2 680.555C3154.24 679.772 3153.81 679.69 3154.22 680.365C3154.61 681.019 3154.11 682.135 3153.1 682.865C3152.09 683.59 3150.89 684.858 3150.43 685.683C3149.96 686.508 3151.1 685.833 3152.96 684.183C3155.7 681.745 3155.54 682.068 3152.11 685.911C3149.79 688.511 3147.89 691.153 3147.89 691.783C3147.89 692.552 3147.35 692.477 3146.23 691.555C3144.74 690.324 3144.68 690.393 3145.65 692.224C3146.41 693.648 3146.44 695.688 3145.74 698.974C3145.06 702.129 3145.06 705.24 3145.74 708.4C3146.29 710.994 3146.48 713.539 3146.16 714.054C3145.85 714.57 3146.07 714.691 3146.67 714.323C3147.62 713.732 3148.39 714.949 3149.09 718.183C3149.37 719.504 3156.5 725.43 3159.96 727.215C3161.46 727.991 3164.53 728.921 3166.79 729.282C3169.05 729.643 3170.89 730.358 3170.89 730.87C3170.89 731.382 3170.37 731.48 3169.74 731.088C3169.07 730.677 3168.85 730.81 3169.22 731.402C3169.64 732.088 3171.77 731.937 3175.62 730.946C3178.8 730.131 3182.58 729.419 3184.03 729.364C3185.96 729.291 3186.52 728.847 3186.12 727.724C3185.82 726.876 3185.91 726.488 3186.33 726.861C3186.74 727.233 3188.42 726.02 3190.04 724.164C3191.67 722.308 3193.54 720.917 3194.2 721.072C3194.86 721.228 3195.09 721.178 3194.72 720.962C3193.93 720.498 3197.06 714.699 3198.11 714.689C3198.51 714.686 3198.59 714.054 3198.29 713.284C3198 712.515 3198.2 711.614 3198.73 711.283C3199.27 710.952 3199.45 709.711 3199.14 708.526C3198.8 707.221 3198.97 706.614 3199.58 706.988C3201.36 708.09 3198.98 696.492 3196.28 690.913C3194.88 688.015 3191.98 684.238 3189.84 682.52C3187.7 680.802 3186.23 678.941 3186.58 678.385C3186.92 677.829 3186.73 677.663 3186.16 678.017C3184.76 678.882 3178.72 676.716 3177.07 674.758C3176.34 673.892 3176.03 673.746 3176.38 674.433ZM3190.89 724.624C3190.89 725.142 3191.34 725.84 3191.88 726.176C3192.45 726.526 3192.62 726.125 3192.28 725.235C3191.61 723.503 3190.89 723.186 3190.89 724.624Z" fill="#333333"/>
<path fill-rule="evenodd" clip-rule="evenodd" d="M2824 135V218.608V279.068V289.459V297.961L3021.71 298H3196.84L3223 298V216.242V174.676V135L3209.14 149.647L3209.14 217.703L3209.14 285.68H3020.47H2835.36V150.115H3022.25L3209.14 149.647L3223 135L3020.5 135L2824 135ZM2971.97 167.563C2963.69 169.541 2956.85 176.052 2952.07 186.494C2946.6 198.454 2945.19 237.839 2949.69 253.281C2955.22 272.265 2969.07 282.925 2984.45 280.042C3003.46 276.484 3013.26 257.19 3013.26 223.337C3013.26 182.954 2997.37 161.487 2971.97 167.563ZM3127.04 167.612C3116.81 170.012 3109.4 178.799 3108.46 189.625C3107.46 201.316 3111.58 208.176 3126.15 219.063C3147.13 234.731 3153.45 241.595 3154.57 249.891C3155.43 256.287 3154.77 258.515 3150.5 263.578C3146.26 268.609 3144.07 269.626 3137.47 269.626C3127.28 269.626 3121.8 265.686 3119 256.332C3117.06 249.89 3116 248.843 3111.37 248.843C3104.72 248.843 3104.24 253.491 3109.74 264.819C3116.81 279.398 3135.85 284.909 3151.27 276.841C3162.46 270.992 3167.03 262.463 3166.04 249.296C3165.1 236.719 3159.06 228.884 3139.87 215.337C3122.99 203.417 3119.24 199.149 3119.24 191.828C3119.24 183.732 3122.14 179.521 3129.36 177.142C3139.79 173.707 3149.46 179.483 3152.14 190.745C3153.16 195.013 3154.41 195.941 3159.17 195.941C3164.7 195.941 3164.91 195.661 3163.72 189.801C3160.37 173.227 3144.36 163.542 3127.04 167.612ZM2916.36 216.894L2915.79 264.298L2911.15 268.044C2907.66 270.865 2904.93 271.498 2900.13 270.599C2894.03 269.454 2893.78 269.63 2894.36 274.71C2894.91 279.435 2895.8 280.074 2902.54 280.535C2911.77 281.164 2922.41 276.144 2925.67 269.626C2927.37 266.229 2928.04 251.514 2928.06 217.196L2928.09 169.49H2922.51H2916.92L2916.36 216.894ZM3030.73 223.809L3031.24 278.128L3050.42 277.926C3083.07 277.582 3094.1 268.793 3092.34 244.529C3091.63 234.775 3090.7 232.438 3085.74 228.015C3082.56 225.181 3078.79 222.447 3077.37 221.939C3075.51 221.281 3076.28 219.805 3080.01 216.813C3090.8 208.165 3093.7 195.029 3087.54 182.716C3082.33 172.302 3074.49 169.496 3050.61 169.494L3030.23 169.49L3030.73 223.809ZM2990.09 181.299C2996.46 188.083 2998.44 195.558 2999.5 216.724C3001.16 250.016 2994.23 269.626 2980.79 269.626C2967.91 269.626 2962.77 261.847 2960.56 239.016C2957.81 210.691 2960.86 189.504 2968.83 181.554C2974.78 175.606 2984.64 175.489 2990.09 181.299ZM3072.77 183.188C3079.22 188.86 3080.52 197.075 3076.26 205.388C3072.44 212.853 3064.54 216.446 3051.58 216.618L3043.54 216.724V197.83V178.937H3055.73C3065.69 178.937 3068.82 179.719 3072.77 183.188ZM3074.84 232.003C3084.27 241.412 3082.58 259.401 3071.75 264.991C3068.82 266.505 3061.3 267.736 3054.99 267.736H3043.54V246.74V225.744L3056.81 226.492C3067.89 227.117 3070.86 228.024 3074.84 232.003Z" fill="#333333"/>
<path d="M2561.26 986.796L2558.84 999.217H2404.97L2404.4 994.967C2396.96 939.249 2392.58 915.387 2386.24 896.02C2381.58 881.791 2377.93 879.997 2370.48 888.276C2365.46 893.863 2355.89 911.927 2348.01 930.717C2340.65 948.258 2330.84 975.155 2330.84 977.805C2330.84 980.103 2329.22 981.924 2328.13 980.84C2327.29 979.991 2330.63 937.885 2333.43 914.217C2341.87 842.897 2354.6 805.79 2372.14 801.374C2385.25 798.072 2402.63 811.512 2420.94 839.121C2424.74 844.844 2427.84 849.022 2427.84 848.408C2427.84 847.793 2426.01 838.386 2423.77 827.504C2414.86 784.221 2404.27 747.07 2392.61 718.217C2387.1 704.577 2377.51 684.714 2375.13 682.025C2374.31 681.094 2373.81 679.806 2374.03 679.161C2374.55 677.607 2387.53 687.48 2401.37 699.948C2439.18 734.029 2473.18 781.083 2494.88 829.379L2499.23 839.042L2503.62 824.879C2515.82 785.512 2535.66 747.703 2561.53 714.484C2571.36 701.872 2588.08 683.301 2589.09 683.889C2589.49 684.128 2589.1 685.987 2588.22 688.02C2579.86 707.25 2569.57 744.905 2563.43 778.717C2559.55 800.067 2554.83 829.855 2554.86 832.786C2554.87 833.848 2557.06 830.617 2559.72 825.607C2576.85 793.338 2593.39 782.832 2606.47 795.913C2611.2 800.644 2617.17 813.313 2620.36 825.415C2623.2 836.179 2627.12 860.964 2626.21 862.432C2625.89 862.949 2624.05 860.975 2622.11 858.045C2615.4 847.9 2607.35 841.217 2601.83 841.217C2591.14 841.217 2580.91 860.011 2573.53 893.217C2568.6 915.386 2563.05 957.73 2561.26 986.796Z" fill="#258D8C"/>
<path d="M2527.34 1162.2H2486.5H2429C2409.6 1148.14 2398.25 1131.27 2393.16 1042.72C2391.78 1018.86 2386.13 987.261 2393.16 987.232C2397.93 987.81 2570.18 988.216 2570.47 988.507C2571.17 989.214 2569.2 1022.78 2567.27 1042.72C2561.04 1107.35 2548.07 1149.78 2531.52 1159.7L2527.34 1162.2Z" fill="#333333"/>
<path d="M2724 0L3331.5 0.5L3295 0.469959L3294 35L2760.5 35.5L2760 1162H3294.5L3294 35L3295 0.469959L3331.5 0.5L3331.5 1162.5L3689 1162V1178H0V1162H2724V0Z" fill="#333333"/>
</svg>
