<svg width="3689" height="1178" viewBox="0 0 3689 1178" fill="none" xmlns="http://www.w3.org/2000/svg">
<path d="M1400.88 1168.85C1403.37 1170.28 1403.47 1177.8 1396.25 1177.8H1185.65V1173C1185.65 1170.37 1186.15 1168.21 1186.77 1168.21C1187.43 1168.21 1187.88 1164.14 1187.88 1158.12C1187.88 1148.29 1187.96 1147.97 1191 1145.81L1194.13 1143.6L1192.12 1132.81C1188.03 1110.87 1186.38 1085.45 1186.35 1044.09C1186.29 977.696 1190.88 939.145 1201.35 918.1C1203.17 914.437 1205.05 911.441 1205.52 911.441C1207.01 911.441 1205.98 889.951 1204.09 881.635C1201.82 871.652 1197.34 837.926 1195.03 813.422C1192.66 788.217 1191.69 732.486 1193.32 715.466C1194.02 708.175 1194.75 702.061 1194.94 701.879C1187.62 704.609 1220.87 577.963 1220.3 577.963C1218.93 577.963 1211.94 557.65 1208.51 543.733C1203.69 524.103 1199 493.382 1197.33 470.355C1196.32 456.544 1195.93 454.995 1193.15 453.825C1191.58 453.159 1190.69 451.888 1190.74 450.376C1190.79 449.059 1190.74 447.981 1190.62 447.981C1190.51 447.981 1187.06 449.659 1182.95 451.71C1174.75 455.809 1170.03 456.331 1163.78 453.827C1161.56 452.941 1159.63 452.341 1159.48 452.495C1157.79 454.228 1142.31 512.44 1142.31 517.083C1142.31 517.566 1144.29 518.529 1146.7 519.222C1153.47 521.165 1156.72 525.318 1164.48 541.885C1168.41 550.301 1175.65 565.098 1180.56 574.767C1188.59 590.583 1189.47 592.934 1189.36 598.206C1189.29 601.429 1188.42 606.33 1187.41 609.098C1185.61 614.057 1185.63 614.209 1188.49 619.615C1192.07 626.405 1191.49 629.567 1186.2 631.985C1183.64 633.156 1181.97 634.885 1181.18 637.187C1179.94 640.791 1178.28 641.888 1174.07 641.888C1172.68 641.888 1170.61 642.882 1169.47 644.095C1167.91 645.749 1166.26 646.235 1162.91 646.036C1160.44 645.89 1157.1 646.136 1155.47 646.584C1151.1 647.788 1148.63 645.932 1146.29 639.703C1144.99 636.231 1142.6 632.746 1139.94 630.444C1134.34 625.596 1130.2 618.381 1124.78 604.066C1116.18 581.332 1112.82 561.043 1113.7 537.193C1114.25 522.316 1115.71 515.219 1118.25 514.985C1118.96 514.92 1120.62 514.95 1121.95 515.052C1124.05 515.212 1124.46 514.554 1125.03 510.108C1127.65 489.55 1133.88 466.919 1142.47 446.728L1146.86 436.418L1144.86 430.747C1142.06 422.776 1142.23 407.862 1145.22 400.037C1147.99 392.779 1153.65 388.315 1169.54 380.862C1181.5 375.253 1191.86 372.266 1200.33 371.981C1203.65 371.87 1205.64 371.317 1205.65 370.509C1205.65 369.797 1206.65 368.707 1207.86 368.087C1209.61 367.187 1210.53 367.414 1212.4 369.214C1214.58 371.298 1216.08 371.486 1232.43 371.695L1250.11 371.919L1250.13 367.6C1250.13 365.224 1250.43 362.232 1250.79 360.951C1251.36 358.919 1250.9 358.538 1247.17 357.96C1227.38 354.9 1214.16 349.607 1204.71 340.97C1198.95 335.706 1197.71 335.046 1193.56 335.046C1187.33 335.046 1183.44 331.491 1183.42 325.772C1183.4 320.245 1182.35 316.934 1180.61 316.934C1179.63 316.934 1178.94 314.608 1178.48 309.742C1178.1 305.787 1177.57 301.214 1177.3 299.58C1176.97 297.602 1177.35 296.407 1178.45 296.004C1179.68 295.551 1180.1 293.582 1180.1 288.239C1180.1 279.437 1182.22 276.951 1190.66 275.882L1196.21 275.179L1196.24 266.49C1196.28 257.43 1198.97 242.977 1201.97 235.8C1204.06 230.776 1206.92 229.211 1217.92 227.069C1250.58 220.71 1352.24 214.333 1360.1 218.151C1363.8 219.942 1368.18 228.472 1373.94 245.089L1378.72 258.868L1385.82 258.932C1397.05 259.033 1399.31 260.936 1400.63 271.388C1401.36 277.146 1401.57 277.477 1404.01 276.888C1406.47 276.296 1406.66 276.611 1407.31 282.48C1407.69 285.901 1408.25 290.722 1408.57 293.193C1409.11 297.366 1408.94 297.736 1406.19 298.399C1403.57 299.029 1403.3 299.507 1403.82 302.578C1404.6 307.214 1403 313.597 1400.44 316.055C1399.23 317.21 1396.02 318.315 1392.8 318.681C1387.4 319.294 1387.14 319.483 1384.08 325.094C1377.09 337.9 1358.63 348.263 1333.18 353.672L1324.57 355.503V362.731C1324.57 369.266 1324.83 370.127 1327.35 371.705C1328.87 372.665 1330.12 374.399 1330.12 375.557C1330.12 377.51 1330.91 377.664 1340.96 377.676C1351.41 377.688 1360.37 379.195 1365.43 381.796C1367.31 382.757 1368.37 382.733 1370.11 381.69C1372.86 380.046 1376.07 381.589 1376.57 384.791C1376.76 385.987 1378.61 387.687 1380.84 388.704C1394.18 394.803 1410.7 418.361 1416.28 439.237C1417.91 445.343 1417.88 446.002 1415.73 451.89C1414.47 455.307 1411.61 460.667 1409.36 463.803C1405.51 469.161 1396.68 476.748 1394.29 476.748C1393.06 476.748 1393.15 477.197 1397.71 493.794C1400.78 504.973 1402.13 511.841 1404.03 525.961C1404.66 530.641 1404.92 530.979 1408.24 531.288C1414.39 531.859 1415.15 534.926 1415.08 558.785C1415.03 577.216 1414.68 581.109 1411.99 593.283C1408.96 606.986 1403.45 622.772 1398.19 632.832C1393.53 641.727 1389.09 646.843 1383.47 649.773C1378.93 652.143 1377.82 653.385 1376.08 658.022C1374.82 661.38 1373.09 663.893 1371.58 664.551C1368.57 665.868 1367.78 672.838 1369.78 680.482C1374.49 698.441 1376.88 727.288 1376.87 766.172C1376.87 807.207 1375.01 829.903 1369.48 856.353L1367.74 864.659L1371.05 869.671C1376.58 878.028 1378.28 884.172 1378.33 895.992C1378.38 907.609 1376.7 914.227 1371.29 923.693C1368.37 928.802 1368.22 929.85 1367.52 949.263C1365.22 1013.86 1354.28 1102.17 1344.75 1133.19L1342.58 1140.26L1367.1 1150.77C1381.5 1156.95 1393.11 1162.6 1395.23 1164.48C1397.22 1166.24 1399.76 1168.2 1400.88 1168.85Z" fill="#49B3E3"/>
<path fill-rule="evenodd" clip-rule="evenodd" d="M1271.46 278.91C1277.58 284.781 1274.35 296.793 1265.56 296.793C1259.99 296.793 1255.98 293.005 1255.98 287.737C1255.98 279.539 1265.37 273.072 1271.46 278.91ZM1343.03 279.706C1345.75 281.1 1347.96 286.579 1347.11 289.818C1346.08 293.753 1342.11 296.793 1337.99 296.793C1332.88 296.793 1331.03 295.883 1329.18 292.455C1326.81 288.06 1327.18 284.267 1330.28 281.297C1333.18 278.514 1339.24 277.758 1343.03 279.706ZM1324.24 304.781C1318.23 314.754 1303.9 319.687 1295.46 315.507C1292.67 314.12 1284.21 306.06 1284.21 304.781C1284.21 304.49 1292.49 304.251 1302.61 304.251C1317.02 304.251 1324.87 303.738 1324.24 304.781ZM1380.24 502.332C1386.17 525.659 1387.42 533.318 1385.28 533.318C1384.48 533.318 1381.58 534.355 1378.85 535.623C1374.04 537.857 1373.58 538.516 1364 557.198C1358.56 567.796 1354.35 575.685 1354.64 574.729C1359.2 559.624 1364.46 529.101 1367.16 501.972L1369.1 482.532H1372.15C1375.2 482.532 1375.23 482.612 1380.24 502.332ZM1284.91 716.118L1288.1 716.73L1288.15 749.412C1288.2 783.967 1289.28 801.585 1293.71 839.627C1297.39 871.265 1300.11 886.024 1303.49 892.703C1305.02 895.74 1306.51 900.567 1306.79 903.43C1307.23 907.821 1306.81 909.385 1304.14 913.435C1294.37 928.2 1289.8 955.443 1287.48 1012.83C1285.69 1057.28 1288.4 1112.08 1293.59 1135.99L1295.01 1142.56L1291.84 1144.81C1289 1146.82 1288.66 1147.7 1288.66 1153.01C1288.66 1158.23 1288.42 1158.86 1286.71 1158.24C1285.64 1157.85 1275.12 1153.39 1263.34 1148.34C1246.33 1141.04 1242.05 1138.8 1242.61 1137.48C1244.46 1133.1 1249.8 1110.97 1251.87 1099.06C1258.38 1061.63 1265.46 991.593 1267.11 948.301C1267.85 928.836 1267.99 927.853 1270.96 922.73C1279.44 908.079 1280.54 889.136 1273.76 874.766L1271.23 869.418L1273.78 857.306C1280.14 827.014 1282.56 794.171 1281.57 751.73C1281.18 735.029 1280.55 720.047 1280.18 718.435C1279.46 715.319 1279.82 715.143 1284.91 716.118Z" fill="#F6F5F4"/>
<path d="M1142.46 633.048C1144.68 635.712 1146.35 639.441 1146.35 639.441C1143.57 638.376 1141.81 640.811 1142.94 645.102C1143.56 647.475 1144.08 647.749 1146.85 647.165C1149.2 646.672 1150.33 646.965 1151.09 648.264C1152.02 649.859 1153.95 649.48 1170.49 644.458C1186.41 639.619 1188.78 638.618 1188.31 636.91C1187.93 635.512 1188.62 634.632 1190.68 633.882C1193.99 632.676 1195.14 628.156 1192.47 625.59C1192.47 625.59 1191.79 623.992 1190.68 625.058C1190.68 625.058 1188.34 619.723 1188.05 619.229C1188.03 619.226 1188.02 619.216 1188.02 619.198C1188.02 619.185 1188.03 619.197 1188.05 619.229C1188.26 619.266 1189.51 618.574 1191.01 618.692C1194.82 618.995 1198.73 622.505 1200.28 627.017C1201.36 630.141 1201.79 630.43 1204.11 629.584C1206.14 628.845 1207.06 629.073 1208.21 630.592C1209.62 632.456 1211.53 631.989 1246.3 621.285C1273.92 612.78 1280.26 611.74 1282.48 611.207C1282.82 612.168 1331.38 752.324 1331.38 752.324C1258.99 774.58 1106.48 824.497 1106.26 824.257C1105.94 823.892 1058 680.085 1058 679.484C1058 679.199 1074.51 673.965 1094.69 667.853C1129.31 657.374 1131.36 656.612 1130.81 654.43C1130.35 652.561 1130.84 651.99 1133.4 651.451C1136.52 650.794 1136.55 650.713 1135.46 646.117C1134.05 640.219 1137.89 635.315 1142.46 633.048Z" fill="#333333"/>
<path fill-rule="evenodd" clip-rule="evenodd" d="M3176.38 674.433C3176.8 675.268 3176.18 675.683 3174.52 675.683C3173.15 675.683 3170.98 676.067 3169.71 676.537C3164.53 678.448 3161.7 678.808 3162.38 677.473C3162.75 676.764 3162.45 676.858 3161.72 677.683C3158.48 681.348 3156.99 682.006 3155.2 680.555C3154.24 679.772 3153.81 679.69 3154.22 680.365C3154.61 681.019 3154.11 682.135 3153.1 682.865C3152.09 683.59 3150.89 684.858 3150.43 685.683C3149.96 686.508 3151.1 685.833 3152.96 684.183C3155.7 681.745 3155.54 682.068 3152.11 685.911C3149.79 688.511 3147.89 691.153 3147.89 691.783C3147.89 692.552 3147.35 692.477 3146.23 691.555C3144.74 690.324 3144.68 690.393 3145.65 692.224C3146.41 693.648 3146.44 695.688 3145.74 698.974C3145.06 702.129 3145.06 705.24 3145.74 708.4C3146.29 710.994 3146.48 713.539 3146.16 714.054C3145.85 714.57 3146.07 714.691 3146.67 714.323C3147.62 713.732 3148.39 714.949 3149.09 718.183C3149.37 719.504 3156.5 725.43 3159.96 727.215C3161.46 727.991 3164.53 728.921 3166.79 729.282C3169.05 729.643 3170.89 730.358 3170.89 730.87C3170.89 731.382 3170.37 731.48 3169.74 731.088C3169.07 730.677 3168.85 730.81 3169.22 731.402C3169.64 732.088 3171.77 731.937 3175.62 730.946C3178.8 730.131 3182.58 729.419 3184.03 729.364C3185.96 729.291 3186.52 728.847 3186.12 727.724C3185.82 726.876 3185.91 726.488 3186.33 726.861C3186.74 727.233 3188.42 726.02 3190.04 724.164C3191.67 722.308 3193.54 720.917 3194.2 721.072C3194.86 721.228 3195.09 721.178 3194.72 720.962C3193.93 720.498 3197.06 714.699 3198.11 714.689C3198.51 714.686 3198.59 714.054 3198.29 713.284C3198 712.515 3198.2 711.614 3198.73 711.283C3199.27 710.952 3199.45 709.711 3199.14 708.526C3198.8 707.221 3198.97 706.614 3199.58 706.988C3201.36 708.09 3198.98 696.492 3196.28 690.913C3194.88 688.015 3191.98 684.238 3189.84 682.52C3187.7 680.802 3186.23 678.941 3186.58 678.385C3186.92 677.829 3186.73 677.663 3186.16 678.017C3184.76 678.882 3178.72 676.716 3177.07 674.758C3176.34 673.892 3176.03 673.746 3176.38 674.433ZM3190.89 724.624C3190.89 725.142 3191.34 725.84 3191.88 726.176C3192.45 726.526 3192.62 726.125 3192.28 725.235C3191.61 723.503 3190.89 723.186 3190.89 724.624Z" fill="#333333"/>
<path fill-rule="evenodd" clip-rule="evenodd" d="M2824 135V218.608V279.068V289.459V297.961L3021.71 298H3196.84L3223 298V216.242V174.676V135L3209.14 149.647L3209.14 217.703L3209.14 285.68H3020.47H2835.36V150.115H3022.25L3209.14 149.647L3223 135L3020.5 135L2824 135ZM2971.97 167.563C2963.69 169.541 2956.85 176.052 2952.07 186.494C2946.6 198.454 2945.19 237.839 2949.69 253.281C2955.22 272.265 2969.07 282.925 2984.45 280.042C3003.46 276.484 3013.26 257.19 3013.26 223.337C3013.26 182.954 2997.37 161.487 2971.97 167.563ZM3127.04 167.612C3116.81 170.012 3109.4 178.799 3108.46 189.625C3107.46 201.316 3111.58 208.176 3126.15 219.063C3147.13 234.731 3153.45 241.595 3154.57 249.891C3155.43 256.287 3154.77 258.515 3150.5 263.578C3146.26 268.609 3144.07 269.626 3137.47 269.626C3127.28 269.626 3121.8 265.686 3119 256.332C3117.06 249.89 3116 248.843 3111.37 248.843C3104.72 248.843 3104.24 253.491 3109.74 264.819C3116.81 279.398 3135.85 284.909 3151.27 276.841C3162.46 270.992 3167.03 262.463 3166.04 249.296C3165.1 236.719 3159.06 228.884 3139.87 215.337C3122.99 203.417 3119.24 199.149 3119.24 191.828C3119.24 183.732 3122.14 179.521 3129.36 177.142C3139.79 173.707 3149.46 179.483 3152.14 190.745C3153.16 195.013 3154.41 195.941 3159.17 195.941C3164.7 195.941 3164.91 195.661 3163.72 189.801C3160.37 173.227 3144.36 163.542 3127.04 167.612ZM2916.36 216.894L2915.79 264.298L2911.15 268.044C2907.66 270.865 2904.93 271.498 2900.13 270.599C2894.03 269.454 2893.78 269.63 2894.36 274.71C2894.91 279.435 2895.8 280.074 2902.54 280.535C2911.77 281.164 2922.41 276.144 2925.67 269.626C2927.37 266.229 2928.04 251.514 2928.06 217.196L2928.09 169.49H2922.51H2916.92L2916.36 216.894ZM3030.73 223.809L3031.24 278.128L3050.42 277.926C3083.07 277.582 3094.1 268.793 3092.34 244.529C3091.63 234.775 3090.7 232.438 3085.74 228.015C3082.56 225.181 3078.79 222.447 3077.37 221.939C3075.51 221.281 3076.28 219.805 3080.01 216.813C3090.8 208.165 3093.7 195.029 3087.54 182.716C3082.33 172.302 3074.49 169.496 3050.61 169.494L3030.23 169.49L3030.73 223.809ZM2990.09 181.299C2996.46 188.083 2998.44 195.558 2999.5 216.724C3001.16 250.016 2994.23 269.626 2980.79 269.626C2967.91 269.626 2962.77 261.847 2960.56 239.016C2957.81 210.691 2960.86 189.504 2968.83 181.554C2974.78 175.606 2984.64 175.489 2990.09 181.299ZM3072.77 183.188C3079.22 188.86 3080.52 197.075 3076.26 205.388C3072.44 212.853 3064.54 216.446 3051.58 216.618L3043.54 216.724V197.83V178.937H3055.73C3065.69 178.937 3068.82 179.719 3072.77 183.188ZM3074.84 232.003C3084.27 241.412 3082.58 259.401 3071.75 264.991C3068.82 266.505 3061.3 267.736 3054.99 267.736H3043.54V246.74V225.744L3056.81 226.492C3067.89 227.117 3070.86 228.024 3074.84 232.003Z" fill="#333333"/>
<path d="M2561.26 986.796L2558.84 999.217H2404.97L2404.4 994.967C2396.96 939.249 2392.58 915.387 2386.24 896.02C2381.58 881.791 2377.93 879.997 2370.48 888.276C2365.46 893.863 2355.89 911.927 2348.01 930.717C2340.65 948.258 2330.84 975.155 2330.84 977.805C2330.84 980.103 2329.22 981.924 2328.13 980.84C2327.29 979.991 2330.63 937.885 2333.43 914.217C2341.87 842.897 2354.6 805.79 2372.14 801.374C2385.25 798.072 2402.63 811.512 2420.94 839.121C2424.74 844.844 2427.84 849.022 2427.84 848.408C2427.84 847.793 2426.01 838.386 2423.77 827.504C2414.86 784.221 2404.27 747.07 2392.61 718.217C2387.1 704.577 2377.51 684.714 2375.13 682.025C2374.31 681.094 2373.81 679.806 2374.03 679.161C2374.55 677.607 2387.53 687.48 2401.37 699.948C2439.18 734.029 2473.18 781.083 2494.88 829.379L2499.23 839.042L2503.62 824.879C2515.82 785.512 2535.66 747.703 2561.53 714.484C2571.36 701.872 2588.08 683.301 2589.09 683.889C2589.49 684.128 2589.1 685.987 2588.22 688.02C2579.86 707.25 2569.57 744.905 2563.43 778.717C2559.55 800.067 2554.83 829.855 2554.86 832.786C2554.87 833.848 2557.06 830.617 2559.72 825.607C2576.85 793.338 2593.39 782.832 2606.47 795.913C2611.2 800.644 2617.17 813.313 2620.36 825.415C2623.2 836.179 2627.12 860.964 2626.21 862.432C2625.89 862.949 2624.05 860.975 2622.11 858.045C2615.4 847.9 2607.35 841.217 2601.83 841.217C2591.14 841.217 2580.91 860.011 2573.53 893.217C2568.6 915.386 2563.05 957.73 2561.26 986.796Z" fill="#258D8C"/>
<path d="M2527.34 1162.2H2486.5H2429C2409.6 1148.14 2398.25 1131.27 2393.16 1042.72C2391.78 1018.86 2386.13 987.261 2393.16 987.232C2397.93 987.81 2570.18 988.216 2570.47 988.507C2571.17 989.214 2569.2 1022.78 2567.27 1042.72C2561.04 1107.35 2548.07 1149.78 2531.52 1159.7L2527.34 1162.2Z" fill="#333333"/>
<path d="M2724 0L3331.5 0.5L3295 0.469959L3294 35L2760.5 35.5L2760 1162H3294.5L3294 35L3295 0.469959L3331.5 0.5L3331.5 1162.5L3689 1162V1178H0V1162H2724V0Z" fill="#333333"/>
</svg>
