<svg width="551" height="865" viewBox="0 0 551 865" fill="none" xmlns="http://www.w3.org/2000/svg">
<path d="M390.3 851.481C392.54 853.32 392.234 858.871 390.3 860.625H259.865L259.834 860.382C259.409 856.97 258.693 851.217 259.865 850.439C262.504 848.688 262.862 828.278 261.059 782.346C259.265 736.642 259.687 696.982 262.14 680.584C262.986 674.933 265.277 660.875 267.23 649.341L270.782 628.373L268.843 611.518C267.775 602.248 266.603 594.238 266.236 593.718C265.857 593.18 253.541 592.505 237.535 592.145C222.115 591.799 207.484 591.259 205.022 590.946C201.284 590.471 200.444 590.675 199.941 592.182C199.61 593.175 185.708 641.102 169.049 698.686C152.391 756.27 137.255 808.448 135.415 814.636C132.433 824.659 132.093 827.172 132.302 837.631C132.431 844.089 132.991 849.79 133.546 850.302C134.101 850.813 134.556 853.345 134.556 855.928V864.047H2.29295L0.306655 857.198C-0.649807 854.899 0.8038 854.469 2.29295 852.407C3.30332 851.007 4.70504 849.862 5.4081 849.862C6.11116 849.862 8.40478 848.345 10.5053 846.492C13.2378 844.081 21.3812 840.3 39.1259 833.202C52.7665 827.746 65.2479 822.839 66.861 822.298C68.9756 821.589 69.9547 820.45 70.3666 818.22C71.0912 814.297 104.166 576.19 104.675 571.231C104.877 569.277 103.408 568.468 91.9631 564.235C84.8462 561.603 75.7603 558.084 71.7716 556.416C65.043 553.602 64.5557 553.19 65.0129 550.691C65.2836 549.211 66.985 539.916 68.7934 530.038C76.6273 487.244 89.6241 439.783 104.324 400.295C106.717 393.862 108.677 388.517 108.677 388.417C108.677 388.317 106.993 387.949 104.934 387.599C102.877 387.248 99.8434 385.943 98.1947 384.7C96.547 383.456 94.6524 382.61 93.986 382.822C92.0191 383.445 79.8095 370.713 71.7556 359.642C58.8072 341.84 44.898 313.266 38.6567 291.643C36.0343 282.561 35.7053 268.753 37.9288 261.175C41.4527 249.168 91.7765 174.835 117.45 143.718C132.732 125.195 140.544 117.482 147.318 114.226C152.755 111.614 166.59 107.344 174.704 105.777L177.651 105.208L174 100.868C165.937 91.2827 164.569 76.852 170.654 65.5671C176.549 54.6336 193.653 42.9143 206.385 41.0855C208.824 40.7352 211.395 40.1266 212.099 39.7312C212.802 39.3369 216.145 34.0325 219.525 27.9444C223.929 20.0167 226.852 16.0157 229.825 13.8435C233.935 10.8425 234.104 10.8121 246.539 10.8121H259.101L265.905 5.78566C269.647 3.02144 274.165 0.494995 275.947 0.172096C280.463 -0.647874 285.337 1.4696 290.207 6.36788C300.054 16.2692 302.149 27.328 296.302 38.5424C292.933 45.0043 292.308 49.4789 294.158 53.8929C294.758 55.3234 299.371 60.3831 304.41 65.1366C316.275 76.3285 320.024 83.0849 320.025 93.2807C320.026 97.8718 319.241 102.519 317.82 106.347L315.613 112.291L320.951 117.412C327.495 123.69 331.538 130.819 336.521 144.864C342.904 162.852 356.762 211.676 365.268 246.137L367.562 255.433L385.552 264.239C395.445 269.083 407.694 275.056 412.769 277.513L421.998 281.98L433.824 259.618C440.328 247.318 446.445 236.842 447.419 236.338C448.754 235.645 457.875 239.28 484.62 251.166C504.108 259.826 526.967 269.911 535.418 273.577C544.662 277.587 550.784 280.804 550.784 281.651C550.784 282.424 545.948 292.042 540.038 303.023C532.233 317.521 529.468 323.604 529.939 325.24C530.367 326.724 529.805 328.453 528.285 330.317C527.019 331.871 525.983 333.958 525.983 334.954C525.983 338.135 518.544 350.672 516.266 351.327C514.96 351.704 514.122 352.809 514.122 354.155C514.122 355.37 512.996 357.325 511.619 358.499C510.243 359.672 504.6 369.19 499.079 379.65C493.56 390.111 488.331 398.916 487.461 399.219C485.004 400.074 386.113 356.622 385.108 354.245C384.728 353.345 386.872 348.046 390.15 341.78C393.286 335.785 395.412 330.731 394.871 330.549C394.332 330.367 383.943 326.538 371.785 322.04C359.627 317.542 349.594 313.93 349.49 314.012C349.385 314.093 351.452 319.914 354.082 326.948C364.266 354.177 374.531 396.667 379.237 431.071C383.124 459.492 383.76 468.973 384.317 506.903C384.864 544.108 384.054 564.557 382.029 564.722C381.436 564.77 376.826 566.58 371.785 568.743C366.744 570.907 360.803 573.266 358.584 573.986C355.368 575.03 354.439 575.9 354.005 578.282C353.704 579.925 347.144 633.446 339.428 697.218C331.71 760.991 325.114 814.979 324.768 817.19L324.14 821.212L351.93 832.344C370.816 839.909 380.916 844.499 383.452 846.669C385.504 848.425 387.441 849.862 387.756 849.862C388.071 849.862 389.216 850.591 390.3 851.481Z" fill="#8DD2FB"/>
<path fill-rule="evenodd" clip-rule="evenodd" d="M251.892 90.1284L262.666 96.7801L267.46 94.9513C270.851 93.6578 273.203 93.3456 275.49 93.8867C277.269 94.3075 282.053 94.9298 286.119 95.2683C293.44 95.8789 293.507 95.9112 292.935 98.5062C292.191 101.879 290.109 135.835 289.164 159.986L288.43 178.766L274.951 162.452C256.27 139.841 237.515 118.724 225.079 106.297C219.296 100.519 214.566 95.5521 214.566 95.2596C214.566 94.967 217.114 94.7224 220.227 94.7145C228.437 94.6959 229.701 94.1352 234.881 88.2232C237.456 85.2858 239.912 83.0158 240.341 83.1792C240.77 83.3426 245.967 86.4688 251.892 90.1284ZM165.838 217.686C167.598 222.443 171.983 233.458 175.584 242.163L182.129 257.992L176.653 266.625C168.499 279.482 154.495 305.379 145.53 324.183L139.85 335.62C136.076 334.641 130.623 317.235 130.623 317.235C121.599 289.8 116.19 270.843 116.699 268.428C116.938 267.292 126.561 251.768 138.083 233.931L159.033 201.501L160.836 205.27C161.827 207.342 164.078 212.93 165.838 217.686Z" fill="#333333"/>
</svg>
