<svg width="269" height="268" viewBox="0 0 269 268" fill="none" xmlns="http://www.w3.org/2000/svg">
<path d="M191.148 222.397V257.241C191.148 263.215 195.132 267.195 201.101 267.195C207.075 267.195 211.054 263.21 211.054 257.241V222.397H222.007V209.455H258.846C264.82 209.455 268.799 205.47 268.799 199.502C268.799 193.528 264.814 189.549 258.846 189.549H222.012V165.653H258.846C264.82 165.653 268.799 161.668 268.799 155.7C268.799 149.726 264.814 145.747 258.846 145.747H222.012V121.851L258.846 121.845C264.82 121.845 268.799 117.861 268.799 111.892C268.799 105.918 264.814 101.939 258.846 101.939H222.012V78.0432H258.846C264.82 78.0432 268.799 74.0588 268.799 68.0901C268.799 62.1161 264.814 58.1371 258.846 58.1371H222.012V45.1944L209.07 45.1892V10.3452C209.07 4.37115 205.085 0.39209 199.117 0.39209C193.143 0.39209 189.164 4.37649 189.164 10.3452V45.1892H165.268V10.3452C165.268 4.37115 161.283 0.39209 155.315 0.39209C149.341 0.39209 145.362 4.37649 145.362 10.3452V45.1892H121.465V10.3452C121.465 4.37115 117.481 0.39209 111.512 0.39209C105.538 0.39209 101.559 4.37649 101.559 10.3452V45.1892H77.6634V10.3452C77.6634 4.37115 73.679 0.39209 67.7103 0.39209C61.7363 0.39209 57.7572 4.37649 57.7572 10.3452V45.1892H44.8146V58.1318H9.95992C3.98592 58.1318 0.00683594 62.1162 0.00683594 68.0849C0.00683594 74.0589 3.99125 78.038 9.95992 78.038H44.8039V101.934H9.95992C3.98592 101.934 0.00683594 105.918 0.00683594 111.887C0.00683594 117.861 3.99125 121.84 9.95992 121.84H44.8039V145.736L9.95992 145.741C3.98592 145.741 0.00683594 149.726 0.00683594 155.694C0.00683594 161.668 3.99125 165.647 9.95992 165.647H44.8039V189.543H9.95992C3.98592 189.543 0.00683594 193.528 0.00683594 199.497C0.00683594 205.471 3.99125 209.45 9.95992 209.45H44.8039V222.392L59.7359 222.397V257.241C59.7359 263.215 63.7203 267.195 69.689 267.195C75.663 267.195 79.6421 263.21 79.6421 257.241V222.397H103.538V257.241C103.538 263.215 107.522 267.195 113.491 267.195C119.465 267.195 123.444 263.21 123.444 257.241V222.397H147.34V257.241C147.34 263.215 151.325 267.195 157.293 267.195C163.267 267.195 167.246 263.21 167.246 257.241V222.397H191.148ZM64.7159 202.485V65.0988H202.103V202.485H64.7159Z" fill="#333333"/>
</svg>
