<svg width="225" height="539" viewBox="0 0 225 539" fill="none" xmlns="http://www.w3.org/2000/svg">
<path d="M204.09 461.931C193.137 461.931 184.178 470.889 184.178 481.843V494.785C177.21 492.796 169.246 488.811 164.266 483.832C159.287 477.858 156.303 470.89 157.298 460.936L158.292 443.015L141.371 440.03C141.371 440.03 98.5644 432.067 79.6471 402.197C72.6783 391.244 69.694 378.301 70.6887 364.364C81.6417 368.348 93.5847 370.338 105.533 370.338C116.486 370.338 125.445 361.379 125.445 350.426C125.445 339.472 116.486 330.514 105.533 330.514C92.59 330.514 80.642 326.529 70.6887 321.555C68.6991 318.571 65.7095 316.576 61.7303 315.581C48.7876 304.628 40.8236 288.701 40.8236 270.779C40.8236 236.929 69.6929 210.049 105.537 210.049C116.49 210.049 125.449 201.091 125.449 190.137C125.449 179.184 116.491 170.225 105.537 170.225C93.5891 170.225 81.6409 172.215 70.6929 176.199C69.6981 161.267 72.6825 148.325 79.6513 136.377C98.5687 106.513 140.381 98.5434 141.375 98.5434L158.297 95.559L157.302 77.6377C157.302 67.6846 159.291 59.7163 164.271 54.7417C169.25 48.7677 177.213 45.7833 184.183 43.7886V56.7313C184.183 67.6843 193.141 76.6433 204.095 76.6433C215.048 76.6433 224.007 67.6849 224.007 56.7313V0.981934H204.095C200.11 0.981934 160.292 1.97672 135.401 27.8619C126.443 37.815 120.469 49.7633 117.48 63.7006C97.568 69.6746 64.7147 84.6073 44.8027 115.471C29.8707 139.367 25.8853 167.242 31.86 198.102C11.948 216.023 0 241.905 0 270.779C0 298.654 11.9479 324.539 31.86 342.462C25.886 373.326 29.8704 401.202 44.8027 424.098C64.7147 454.962 97.568 469.895 117.48 475.869C119.47 489.806 125.444 501.754 135.401 511.707C160.292 537.593 200.115 538.587 204.095 538.587H224.007V482.838C224.001 470.895 215.044 461.931 204.09 461.931Z" fill="#333333"/>
</svg>
