<svg width="225" height="538" viewBox="0 0 225 538" fill="none" xmlns="http://www.w3.org/2000/svg">
<path d="M224.805 269.797C224.805 241.923 212.858 216.037 192.946 197.12C198.92 165.26 194.935 137.385 180.003 114.489C160.091 83.6253 127.237 68.692 107.325 62.7187C105.336 48.7813 99.3619 36.8333 89.4042 26.88C64.5135 0.994661 24.6908 0 20.7108 0H0.798828V55.7493C0.798828 66.7024 9.75721 75.6613 20.7108 75.6613C31.6644 75.6613 40.6228 66.7029 40.6228 55.7493V42.8067C47.5916 44.7963 55.5548 48.7807 60.5348 53.7597C66.5088 59.7337 68.4984 66.7024 68.4984 76.6557L67.5036 94.5771L84.425 97.5615C84.425 97.5615 127.232 105.525 146.149 135.395C153.118 146.348 156.102 159.291 155.107 175.217C144.154 171.233 132.211 169.243 120.263 169.243C109.31 169.243 100.351 178.202 100.351 189.155C100.351 200.109 109.31 209.067 120.263 209.067C156.102 209.067 184.977 235.947 184.977 269.797C184.977 287.718 177.013 303.646 164.07 314.599C160.086 315.594 157.101 317.584 155.112 320.573C145.159 326.547 133.21 330.527 120.268 330.527C109.315 330.527 100.356 339.485 100.356 350.439C100.356 361.392 109.314 370.351 120.268 370.351C132.216 370.351 144.164 368.361 155.112 364.377C156.106 379.309 153.122 391.257 146.153 402.21C127.236 432.074 85.4239 440.043 84.4292 440.043L67.5079 443.028L68.5027 460.949C68.5027 470.902 66.5131 478.87 61.5339 483.845C56.5547 489.819 48.5912 492.803 41.6219 494.798V481.855C41.6219 470.902 32.6635 461.943 21.7099 461.943C10.7563 461.943 1.79789 470.902 1.79789 481.855V537.605H21.7099C25.6943 537.605 65.5126 536.61 90.4032 510.725C99.3616 500.772 105.335 488.823 108.325 474.886C128.237 468.912 161.09 453.979 181.002 423.115C195.934 400.219 199.919 372.345 193.945 341.479C212.857 323.558 224.805 297.673 224.805 269.797Z" fill="#333333"/>
</svg>
