<svg width="100" height="100" viewBox="0 0 100 100" fill="none" xmlns="http://www.w3.org/2000/svg">
<rect width="100" height="100" rx="50" fill="#F6F5F4"/>
<path d="M40.7422 29.8516L25.2734 77H12.8125L33.9453 20.125H41.875L40.7422 29.8516ZM53.5938 77L38.0859 29.8516L36.8359 20.125H44.8438L66.0938 77H53.5938ZM52.8906 55.8281V65.0078H22.8516V55.8281H52.8906ZM82.5391 34.7344V77H71.25V34.7344H82.5391ZM70.5469 23.7188C70.5469 22.0781 71.1198 20.724 72.2656 19.6562C73.4115 18.5885 74.9479 18.0547 76.875 18.0547C78.776 18.0547 80.2995 18.5885 81.4453 19.6562C82.6172 20.724 83.2031 22.0781 83.2031 23.7188C83.2031 25.3594 82.6172 26.7135 81.4453 27.7812C80.2995 28.849 78.776 29.3828 76.875 29.3828C74.9479 29.3828 73.4115 28.849 72.2656 27.7812C71.1198 26.7135 70.5469 25.3594 70.5469 23.7188Z" fill="#292929"/>
</svg>
