<svg width="672" height="681" viewBox="0 0 672 681" fill="none" xmlns="http://www.w3.org/2000/svg">
<g clip-path="url(#clip0_49_80)">
<path d="M626.947 278.404C634.571 255.504 637.217 231.241 634.705 207.236C632.193 183.232 624.582 160.041 612.382 139.217C594.297 107.718 566.673 82.7791 533.495 67.999C500.317 53.2189 463.301 49.3617 427.788 56.9841C411.77 38.9321 392.081 24.5101 370.038 14.6832C347.996 4.85633 324.108 -0.148614 299.975 0.00336007C263.666 -0.0842337 228.268 11.3608 198.883 32.6883C169.498 54.0159 147.645 84.124 136.475 118.672C112.822 123.514 90.4762 133.353 70.9334 147.53C51.3906 161.707 35.1018 179.895 23.1575 200.877C4.92808 232.289 -2.85335 268.678 0.935531 304.798C4.72441 340.918 19.8878 374.9 44.2386 401.845C36.6141 424.744 33.9691 449.008 36.4807 473.012C38.9923 497.017 46.6026 520.207 58.8022 541.032C76.8892 572.529 104.514 597.466 137.692 612.246C170.869 627.026 207.884 630.884 243.397 623.264C259.415 641.316 279.104 655.739 301.146 665.565C323.189 675.392 347.077 680.397 371.21 680.245C407.536 680.34 442.953 668.89 472.35 647.549C501.747 626.208 523.603 596.079 534.764 561.51C558.418 556.668 580.764 546.829 600.306 532.652C619.849 518.475 636.138 500.286 648.082 479.304C666.288 447.894 674.051 411.515 670.253 375.409C666.455 339.304 651.291 305.337 626.947 278.404ZM371.265 635.776C341.445 635.818 312.56 625.375 289.662 606.273C290.694 605.71 292.506 604.717 293.686 603.995L429.13 525.757C432.529 523.823 435.352 521.018 437.308 517.632C439.265 514.245 440.284 510.398 440.261 506.487V315.537L497.511 348.593C497.811 348.743 498.07 348.964 498.264 349.238C498.458 349.511 498.581 349.829 498.623 350.161V508.297C498.58 542.073 485.152 574.454 461.281 598.348C437.409 622.243 405.04 635.701 371.265 635.776ZM97.3706 518.798C82.434 492.99 77.0508 462.75 82.1632 433.373C83.1689 433.977 84.9256 435.05 86.1863 435.774L221.63 514.01C225.005 515.983 228.845 517.023 232.755 517.023C236.665 517.023 240.504 515.983 243.879 514.01L409.243 418.528V484.641C409.262 484.979 409.197 485.316 409.054 485.622C408.912 485.929 408.696 486.195 408.425 486.398L271.505 565.452C242.218 582.319 207.436 586.879 174.791 578.133C142.146 569.387 114.302 548.048 97.3706 518.798ZM61.7392 223.111C76.6113 197.269 100.101 177.483 128.094 167.217C128.094 168.384 128.027 170.45 128.027 171.883V328.356C128.003 332.264 129.02 336.108 130.974 339.493C132.928 342.877 135.748 345.68 139.144 347.614L304.507 443.083L247.259 476.138C246.976 476.324 246.652 476.438 246.315 476.468C245.978 476.499 245.638 476.446 245.327 476.314L108.394 397.192C79.1583 380.261 57.8294 352.428 49.0836 319.795C40.3378 287.163 44.889 252.394 61.7392 223.111ZM532.096 332.567L366.731 237.085L423.981 204.042C424.263 203.856 424.587 203.743 424.924 203.712C425.261 203.682 425.6 203.736 425.911 203.869L562.845 282.922C583.824 295.04 600.916 312.883 612.121 334.364C623.325 355.844 628.178 380.072 626.111 404.211C624.044 428.349 615.142 451.4 600.449 470.662C585.756 489.925 565.878 504.603 543.145 512.977V351.825C543.177 347.923 542.17 344.084 540.229 340.699C538.287 337.315 535.48 334.508 532.096 332.567ZM589.075 246.808C588.07 246.19 586.314 245.131 585.053 244.408L449.607 166.171C446.231 164.201 442.392 163.163 438.484 163.163C434.575 163.163 430.736 164.201 427.36 166.171L261.996 261.654V195.541C261.978 195.203 262.042 194.866 262.185 194.56C262.328 194.253 262.544 193.987 262.814 193.784L399.735 114.796C420.711 102.701 444.697 96.8296 468.888 97.8682C493.079 98.9068 516.474 106.813 536.336 120.661C556.199 134.509 571.707 153.727 581.046 176.067C590.386 198.406 593.171 222.944 589.075 246.808ZM230.872 364.646L173.608 331.589C173.308 331.44 173.049 331.218 172.855 330.944C172.661 330.67 172.537 330.352 172.496 330.019V171.883C172.512 147.663 179.427 123.949 192.431 103.516C205.435 83.0827 223.99 66.7764 245.924 56.5057C267.859 46.2349 292.265 42.4246 316.286 45.5207C340.308 48.6169 362.95 58.4913 381.564 73.9884C380.532 74.5517 378.734 75.5442 377.54 76.2684L242.096 154.504C238.697 156.436 235.874 159.238 233.918 162.623C231.962 166.007 230.943 169.852 230.965 173.761L230.872 364.646ZM261.969 297.593L335.62 255.056L409.269 297.566V382.614L335.62 425.127L261.97 382.614L261.969 297.593Z" fill="#333333"/>
</g>
<defs>
<clipPath id="clip0_49_80">
<rect width="671.194" height="680.249" fill="white"/>
</clipPath>
</defs>
</svg>
