<svg width="90" height="92" viewBox="0 0 90 92" fill="none" xmlns="http://www.w3.org/2000/svg">
<path d="M84.0669 37.331C85.0893 34.2604 85.444 31.0069 85.1072 27.7882C84.7704 24.5695 83.7499 21.4599 82.114 18.6675C79.689 14.4438 75.9848 11.0998 71.536 9.11795C67.0872 7.13609 62.1237 6.61888 57.3619 7.64096C55.2141 5.22039 52.5739 3.28654 49.6182 1.96886C46.6625 0.651183 43.4595 -0.0199276 40.2234 0.00045055C35.3548 -0.0112948 30.6083 1.52336 26.6681 4.38316C22.7279 7.24296 19.7977 11.2801 18.2999 15.9126C15.1282 16.5619 12.1319 17.8812 9.51141 19.7822C6.89093 21.6832 4.70678 24.1221 3.10518 26.9355C0.660804 31.1475 -0.382603 36.0269 0.125445 40.8702C0.633493 45.7134 2.66674 50.2702 5.93193 53.8832C4.90956 56.9537 4.55489 60.2072 4.89168 63.4259C5.22846 66.6447 6.24892 69.7543 7.88476 72.5467C10.31 76.7701 14.0142 80.1139 18.463 82.0957C22.9118 84.0775 27.8751 84.5949 32.6369 83.5731C34.7847 85.9937 37.4249 87.9276 40.3805 89.2453C43.3362 90.563 46.5393 91.2341 49.7753 91.2137C54.6463 91.2264 59.3953 89.6911 63.3371 86.8295C67.2789 83.9679 70.2096 79.9279 71.7062 75.2925C74.8779 74.6433 77.8742 73.324 80.4947 71.423C83.1152 69.522 85.2993 67.0831 86.9009 64.2695C89.3422 60.0578 90.3832 55.1798 89.8738 50.3384C89.3645 45.4971 87.3312 40.9424 84.0669 37.331ZM49.7827 85.2508C45.7842 85.2565 41.911 83.8562 38.8406 81.2948C38.979 81.2194 39.2219 81.0862 39.3802 80.9893L57.5418 70.4985C57.9976 70.2391 58.3761 69.8631 58.6384 69.4089C58.9007 68.9548 59.0374 68.439 59.0343 67.9146V42.3101L66.7109 46.7427C66.7512 46.7627 66.7859 46.7924 66.8119 46.8291C66.8379 46.8658 66.8545 46.9083 66.8601 46.9529V68.1573C66.8543 72.6862 65.0538 77.0282 61.8529 80.2322C58.6519 83.4361 54.3116 85.2408 49.7827 85.2508ZM13.0564 69.5654C11.0535 66.1048 10.3317 62.0499 11.0172 58.1107C11.1521 58.1917 11.3876 58.3356 11.5567 58.4327L29.7183 68.9233C30.1708 69.1879 30.6857 69.3274 31.2099 69.3274C31.7342 69.3274 32.249 69.1879 32.7016 68.9233L54.8752 56.1202V64.9853C54.8777 65.0306 54.869 65.0757 54.8499 65.1168C54.8307 65.1579 54.8017 65.1937 54.7655 65.2209L36.406 75.8211C32.4789 78.0828 27.815 78.6943 23.4376 77.5215C19.0602 76.3488 15.3267 73.4875 13.0564 69.5654ZM8.27858 29.9169C10.2728 26.4517 13.4224 23.7986 17.176 22.422C17.176 22.5785 17.167 22.8555 17.167 23.0478V44.0291C17.1638 44.5531 17.3002 45.0685 17.5622 45.5224C17.8242 45.9762 18.2023 46.3521 18.6577 46.6113L40.8312 59.4128L33.1548 63.8451C33.1169 63.8701 33.0734 63.8853 33.0282 63.8894C32.983 63.8935 32.9375 63.8863 32.8957 63.8686L14.5345 53.2593C10.6143 50.989 7.75431 47.2569 6.58159 42.8812C5.40888 38.5055 6.01914 33.8433 8.27858 29.9169ZM71.3484 44.5937L49.1747 31.7906L56.8514 27.3599C56.8892 27.3349 56.9327 27.3197 56.9778 27.3157C57.023 27.3116 57.0684 27.3188 57.1101 27.3366L75.4715 37.9369C78.2846 39.5617 80.5765 41.9544 82.0789 44.8347C83.5813 47.7149 84.232 50.9637 83.9548 54.2004C83.6777 57.4371 82.4841 60.5279 80.5139 63.1108C78.5436 65.6938 75.8783 67.6619 72.83 68.7848V47.176C72.8342 46.6528 72.6993 46.138 72.4389 45.6842C72.1786 45.2304 71.8022 44.854 71.3484 44.5937ZM78.9888 33.0943C78.854 33.0115 78.6184 32.8695 78.4495 32.7725L60.2876 22.2818C59.8349 22.0176 59.3201 21.8784 58.796 21.8784C58.2719 21.8784 57.7571 22.0176 57.3044 22.2818L35.1309 35.0851V26.22C35.1284 26.1747 35.1371 26.1295 35.1562 26.0884C35.1754 26.0473 35.2044 26.0116 35.2406 25.9844L53.6002 15.393C56.4129 13.7711 59.6292 12.9838 62.873 13.1231C66.1167 13.2624 69.2537 14.3225 71.917 16.1794C74.5803 18.0363 76.6598 20.6132 77.9121 23.6087C79.1645 26.6042 79.5379 29.8944 78.9888 33.0943ZM30.9575 48.8951L23.279 44.4626C23.2387 44.4425 23.204 44.4128 23.178 44.3761C23.152 44.3393 23.1354 44.2967 23.1299 44.2521V23.0478C23.132 19.8001 24.0592 16.6202 25.8029 13.8804C27.5466 11.1405 30.0346 8.95401 32.9758 7.57681C35.917 6.19961 39.1897 5.68869 42.4107 6.10385C45.6317 6.51901 48.6678 7.84307 51.1637 9.92106C51.0252 9.99659 50.7842 10.1297 50.6241 10.2268L32.4625 20.7174C32.0068 20.9764 31.6283 21.3521 31.3659 21.806C31.1036 22.2598 30.967 22.7753 30.97 23.2995L30.9575 48.8951ZM35.1273 39.9041L45.0031 34.2003L54.8786 39.9004V51.3045L45.0031 57.005L35.1273 51.3045L35.1273 39.9041Z" fill="#F6F5F4"/>
</svg>
